<?xml version="1.0" encoding="utf-8"?>
<!-- Generator: Adobe Illustrator 18.1.0, SVG Export Plug-In . SVG Version: 6.00 Build 0)  -->
<!DOCTYPE svg PUBLIC "-//W3C//DTD SVG 1.1//EN" "http://www.w3.org/Graphics/SVG/1.1/DTD/svg11.dtd">
<svg version="1.1" id="Layer_1" xmlns="http://www.w3.org/2000/svg" xmlns:xlink="http://www.w3.org/1999/xlink" x="0px" y="0px"
	 viewBox="0 0 114 115" style="enable-background:new 0 0 114 115;" xml:space="preserve">
<style type="text/css">
	.st0{fill:#FFFFFF;}
	.st1{fill:#B81E4F;}
</style>
<circle class="st0" cx="57.7" cy="56.8" r="51.8"/>
<path class="st1" d="M84.6,68.1c-1.6,2.8-4.2,3.3-7.1,3.2c-4.1-0.2-7-3.6-6.7-7.9h23c-0.1-2.1-0.1-4-0.3-6
	c-0.5-4.2-2.3-7.7-5.7-10.1c-3.3-2.3-7-3-11.1-2.7c-5.8,0.3-10.3,3-12.8,8.5c-1.5,3.6-1.8,7.3-1.4,11.2c0.3,2.9,1.1,5.6,2.9,8
	c5.5,6.8,18.1,7.7,24.3,1.6c1.7-1.7,3.2-3.6,3.6-6.2h-7.9C85,67.6,84.7,67.9,84.6,68.1z M78,51.2c4.1,0.1,7.1,3,6.8,6.6h-14
	C70.9,54,74,51.1,78,51.2z M53.3,54c1.1-0.8,2.1-1.5,3-2.4c3.5-4.1,2.6-11.5-1.7-14.8c-2.4-1.9-5.2-2.6-8.2-2.6
	c-6.9-0.1-13.9,0-20.9-0.1c-0.2,0-0.5,0.1-0.7,0.1v42.7h1.4c5.4,0,10.8,0.1,16.2,0c2.3,0,4.4-0.2,6.6-0.4c5.5-0.7,9.7-4.6,10.6-10.2
	C60.3,61.9,59.3,56.5,53.3,54z M33.2,41.5h4.5c2.8,0.1,5.5,0,8.1,0.3c3.2,0.3,4,1.6,4,4.5c0,2.7-1.3,4.3-4.2,4.5
	c-4.1,0.2-8.3,0.1-12.5,0.1V41.5z M46.2,69.3c-2.9,0.2-5.8,0.1-8.8,0.2h-4.2V58.2c0.3-0.1,0.5-0.1,0.7-0.1c3.6,0,7.2,0,10.8,0.1
	c0.6,0,1.2,0.1,1.7,0.2c3.1,0.5,4.4,2.3,4.4,5.5C50.7,66.9,49.1,69.1,46.2,69.3z M68.1,36.7v4.1h18.5v-4.1H68.1z"/>
</svg>
