<?xml version="1.0" encoding="utf-8"?>
<!-- Generator: Adobe Illustrator 18.1.0, SVG Export Plug-In . SVG Version: 6.00 Build 0)  -->
<!DOCTYPE svg PUBLIC "-//W3C//DTD SVG 1.1//EN" "http://www.w3.org/Graphics/SVG/1.1/DTD/svg11.dtd">
<svg version="1.1" id="Layer_1" xmlns="http://www.w3.org/2000/svg" xmlns:xlink="http://www.w3.org/1999/xlink" x="0px" y="0px"
	 viewBox="216 126 360 360" enable-background="new 216 126 360 360" xml:space="preserve">
<circle fill="#B81E4F" cx="399.7" cy="302.3" r="144"/>
<g id="uTXeyY_1_">
	<g>
		<path fill="#FFFFFF" d="M476,328.2c0,9.1,0,18.2,0,27.3c0,0.9-0.3,1.2-1.2,1.2c-9.5-0.1-18.9-0.1-28.4,0c-0.9,0-1.3-0.3-1.3-1.3
			c0-16.4,0.1-32.8,0-49.2c0-4.9-0.7-9.6-3.2-13.9c-3.3-5.7-10.6-8-17.6-5.8c-7,2.2-11.9,9-11.9,16.7c0,17.4,0,34.8,0,52.2
			c0,1-0.3,1.3-1.3,1.3c-9.5-0.1-18.9-0.1-28.3,0c-0.9,0-1.2-0.3-1.2-1.3c0.1-17.5,0.1-35,0.1-52.6c0-11.9,0-23.9,0-35.8
			c0-0.1,0-0.2,0-0.2c-0.1-3.2-0.1-3.2,3.2-3.2c8.8,0,17.6,0,26.4,0c0.8,0,1.1,0.3,1.1,1.1c-0.1,4-0.1,8-0.1,12
			c0,0.1,0.1,0.2,0.1,0.3c0.1-0.1,0.2-0.2,0.2-0.3c4.1-6.5,9.5-11.7,17-13.6c13.2-3.4,25.4-1.8,35.5,8.1c6.4,6.3,9.3,14.4,10.1,23.1
			c0.6,6.9,0.5,13.8,0.6,20.7C476.1,319.3,476,323.8,476,328.2z"/>
		<path fill="#FFFFFF" d="M364.3,310.1c0,15.1,0,30.1,0,45.2c0,1-0.3,1.3-1.3,1.3c-9.5-0.1-18.9-0.1-28.4,0c-0.9,0-1.1-0.3-1.1-1.1
			c0-30.2,0-60.5,0-90.7c0-0.9,0.3-1.2,1.2-1.2c9.5,0.1,19,0.1,28.5,0c0.9,0,1.2,0.3,1.2,1.2C364.3,279.9,364.3,295,364.3,310.1z"/>
		<path fill="#FFFFFF" d="M331.7,234.7c0-8.6,6.1-15,15-15.9c5.4-0.5,10.4,0.5,14.6,4.2c8.4,7.4,6.1,21.9-4.3,26.1
			c-6.8,2.8-13.6,2.5-19.7-2.1C333.6,244.1,331.7,239.7,331.7,234.7z"/>
	</g>
</g>
</svg>
