<?xml version="1.0" encoding="utf-8"?>
<!-- Generator: Adobe Illustrator 18.1.0, SVG Export Plug-In . SVG Version: 6.00 Build 0)  -->
<!DOCTYPE svg PUBLIC "-//W3C//DTD SVG 1.1//EN" "http://www.w3.org/Graphics/SVG/1.1/DTD/svg11.dtd">
<svg version="1.1" id="Layer_1" xmlns="http://www.w3.org/2000/svg" xmlns:xlink="http://www.w3.org/1999/xlink" x="0px" y="0px"
	 viewBox="0 0 792 612" enable-background="new 0 0 792 612" xml:space="preserve">
<circle fill="#FFFFFF" cx="399.7" cy="302.3" r="275.7"/>
<g id="uTXeyY_1_">
	<g>
		<path fill="#B81E4F" d="M545.8,351.9c0,17.4,0,34.8,0,52.2c0,1.8-0.6,2.3-2.3,2.3c-18.1-0.1-36.2-0.1-54.4,0
			c-1.8,0-2.4-0.5-2.4-2.4c0-31.4,0.1-62.8,0-94.2c0-9.3-1.3-18.4-6.1-26.6c-6.4-10.9-20.3-15.4-33.7-11.1
			c-13.4,4.3-22.8,17.3-22.8,32c0,33.3,0,66.6,0,99.9c0,1.9-0.5,2.5-2.5,2.5c-18.1-0.1-36.2-0.1-54.2,0c-1.8,0-2.3-0.6-2.3-2.4
			c0.1-33.6,0.2-67.1,0.2-100.7c0-22.8,0-45.7,0-68.5c0-0.1,0-0.3,0-0.4c-0.1-6.1-0.1-6.1,6.1-6.1c16.9,0,33.7,0,50.6,0
			c1.6,0,2.2,0.5,2.2,2.2c-0.1,7.6-0.1,15.3-0.1,22.9c0,0.2,0.1,0.3,0.1,0.5c0.1-0.2,0.3-0.4,0.4-0.6c7.9-12.4,18.1-22.4,32.6-26.1
			c25.2-6.5,48.7-3.5,68,15.5c12.2,12,17.8,27.5,19.3,44.2c1.2,13.2,1,26.5,1.2,39.7C546,334.9,545.8,343.4,545.8,351.9z"/>
		<path fill="#B81E4F" d="M332,317.3c0,28.9,0,57.7,0,86.6c0,1.9-0.6,2.4-2.5,2.4c-18.1-0.1-36.2-0.1-54.4,0c-1.7,0-2.2-0.5-2.2-2.2
			c0-57.9,0-115.8,0-173.7c0-1.8,0.6-2.3,2.3-2.3c18.2,0.1,36.3,0.1,54.5,0c1.7,0,2.3,0.5,2.3,2.3C332,259.4,332,288.4,332,317.3z"
			/>
		<path fill="#B81E4F" d="M269.6,172.8c0-16.4,11.7-28.8,28.7-30.4c10.4-0.9,19.9,0.9,28,8c16,14.1,11.6,41.9-8.2,49.9
			c-13.1,5.3-26,4.7-37.7-4.1C273.2,190.9,269.6,182.5,269.6,172.8z"/>
	</g>
</g>
</svg>
