<svg xmlns="http://www.w3.org/2000/svg" viewBox="0 0 690.3 739.2" enable-background="new 0 0 690.3 739.2"><style type="text/css">.st0{fill:#FFFFFF;stroke:#FFFFFF;stroke-miterlimit:10;} .st1{fill:#FFFFFF;} .st2{fill:#FFFFFF;stroke:#FFFFFF;stroke-width:0.5;stroke-miterlimit:10;}</style><path class="st0" d="M174.5 670.2c.2-3.3-3.3-3.4-4.4-5.9 1.2-.1 2-.2 3.1-.2-.1-1.6-.8-3-1.6-4.4-.8-1.4-1.7-2.6-2.7-4 1.6-.1 1.6-.1 4.7 3.4-.5-2.5-.9-4.6-1.4-7 2.5.1 1.8 2.4 3 3.3 1.6-1 1.1-3.1 2-4.5.7.9.7.9 0 4.1-.3 1.4-.4 2.8-.7 4.6 1.5-.8 1.7-2.7 3.5-2.7.2 1.9-1.5 3-1.7 4.6-.3 1.6-.5 3.1-.9 5.2l4.1-3.1c.1.9.3 1.4.1 1.7l-1.7 2c-.5.7-1 1.4-1.8 2.3 1.7.2 3 .1 4.3-.2 2.2-.6 4.3-1.3 6.4-1.9 1.1-.4 1.1-.4 1.2-1.8-2 .6-2 .6-2.9-2.2-.8-.2-1.8-.1-2.3-.6-.4-.4-.3-1.5-.5-2.4-.6.1-1.3.3-2 .4-.9.1-1.5-.7-1.1-1.5.5-.8 1.1-1.5 1.8-2.4l-2.3-1.5c.7-1.7 1.9-2.6 3.3-3.2.2-3.2 1-3.5 4.6-2 .6-1.1 1.1-2.2 1.9-3.2 1-1.2 1.5-1.1 2.4.2.4.6.7 1.2 1 1.6 1.1.2 2.5 0 2.9.5.5.7.2 1.9.3 3.2.7.8 2.6-.1 3 1.9-.9.7-2 1.6-3.1 2.5.2.9 1.5 1.9.5 2.9-.7.8-1.7 1.3-2.9 2.1-.1.8-.3 1.8-1.5 2.4-.4.2-.5 1.1-.9 2.2 4.8-1 9.1-1.7 13.5-.6.2.1.4.3.5.4.1.9-.4 1.2-1.1 1.2-.5 0-1 0-1.4-.2-3.8-1.3-7.6-.4-11.3.5-2.6.6-5 1.5-7.6 2.2-4.3 1.1-8.7 2.3-13.2 1.4-1.4-.3-2.8-.6-4.1-1.2-2.5-1-5-1.1-7.5-.7-3.2.5-6.5 1-9.7 1.7-1.1.2-2.1.8-3.6 1.3-.7 0-1.9 0-3-.2-1.7-.2-3.5-.4-5.1-1-3.6-1.3-7-1.4-10.4.4-1.6.8-3.4 1.3-5.3 2 .5-2.2 2.2-2.2 3.4-2.7 1.4-.7 2.8-1.1 4.1-1.7l-2.4-3.5c-.9.1-2.1.4-3.2.3-1.2-.1-1.5-.8-.9-1.8.6-1.2 1.4-2.3 2.2-3.5-.8-.8-1.6-1.4-2.2-2.2-1.1-1.2-.9-1.6.5-2.3l.9-.3c.3-.1.6-.3.8-.4.1-.2.2-.4.3-.5.2-3.1.4-3.2 3.2-2.2.5.2.9.3 1.5.5.5-.4 1-.9 1.6-1.2 1.5-.8 2.5-.3 2.8 1.4.1.8 0 1.7 0 2.6l.4.3c1 .2 2.2.1 2.4 1.4.2 1.1-.7 1.7-1.4 2.3-.6.5-1.3 1-2.1 1.6.5.4 1 .8 1.5 1.1.4.4.9.7 1.2 1.2.2.5.5 1.3.2 1.8-.2.4-1 .7-1.6.7-1.2-.1-2.3-.4-3.5-.7-.1 2.2.1 2.4 1.8 2.8l6.5 1.6c.8.2 1.7.3 2.6.5-.4-3.5-.4-3.5-4.4-7.2.7-1.2 1.7.1 2.7-.5l-1.5-3.1c-.4-.9-.3-1.5.9-1.8.4.5.9 1 1.5 1.6.7-3 1.8-5.6 4.3-7.3.6 1.2-.3 2.1-.9 3-1.1 1.5-1.8 3.2-1.5 5.3 1-.4 1.7-1.6 3-.5l-1 2c.7-.2 1.3-.4 1.9-.6.5 1.8-.2 3.1-.9 4.4-.6 1.2-1.2 2.4-.5 4.1 4.1-.4 8.1-1.1 12.3-2-.1-1.7-.2-3.1-.3-4.7-.8.1-1.5.3-2.2.4-2.5.3-3.5-.9-2.6-3.2.2-.6.5-1.2.8-1.8-.4-.2-.8-.4-1.1-.6-2-1.3-2.1-2.8 0-4 1.1-.6 2.1-1.2 2.7-2.5.6-1.3 1.9-1.3 3.1-.4.5.4.8 1 1.1 1.3 1.2.1 2.4-.2 3.1.3.7.5.8 1.8 1.2 2.7.2.5.5 1 .7 1.4.3.6.7 1.2 1.1 1.9-.6.5-1 .8-1.5 1.1-.4.3-.8.5-1.3.8.2.6.5 1.1.6 1.6.5 1.6 0 2.2-1.7 2.1-.6 0-1.2-.2-2.1-.3.1 1.2.2 2.2.4 3.4 1 .1 2 .1 3 .3 2.5.5 4.9 1.2 7.4 1.8.6.1 1.6.1 2.7.3zm-41.2-16.8c-1.2 1.2-1.9 2.5-1.6 4.2 2-1.5 2.2-2 1.6-4.2zm58-4.6c-.8 1.5-1.1 2.8-.3 4.4 1.7-2.5 1.7-2.7.3-4.4zm-36.4 13.6h2.5c-.2-1-.4-1.8-.6-2.6h-.5c-.4.8-.8 1.5-1.4 2.6zm-1.4-6.1c1.3.9 2.3 1.3 3.5.3-1.6-1.3-2-1.4-3.5-.3zm-28.4 8.3c2.3 0 3-.9 2.6-3-.9 1-1.7 1.9-2.6 3zm11.8-6.2c-2.6-.1-2.7 0-3.3 2 1.2-.7 2-1.2 3.3-2zm-9.5 1.2l.3-.4c-1.1-2.1-1.1-2.1-2.5-1.2.8.5 1.5 1.1 2.2 1.6zm7.7 5.6l.4-.5c-.8-.8-1.7-1.6-2.9-1.8l-.3.5c.9.6 1.8 1.2 2.8 1.8zm51-10.2c0-.2.1-.4.1-.7-.9-.7-1.8-.8-2.8.2 1 .3 1.8.4 2.7.5zm-24.5 1c1.2-.5 1.2-.5 1-1.8-1.2.5-1.2.5-1 1.8zm-32.6.7c.2-.1.4-.2.5-.3.2-1.1-.2-1.7-2-2 .7 1.1 1.1 1.7 1.5 2.3zm30.2-1.8c-.1-.7 0-1.1-.2-1.4-.2-.3-.6-.6-1-.8-.1 0-.5.2-.5.3 0 .4.1.8.3 1 .3.5.7.6 1.4.9zm1.7 6.2l-.5.5 1.6 1.4c.1-.1.2-.3.4-.4-.4-.6-.3-1.6-1.5-1.5zm36.3-6.2c-1.5-.6-2.3-.2-2.8 1 .8-.3 1.6-.6 2.8-1zm-35.3 3.3c.6 1.3 1.1 1.4 1.8.9.1-.1.2-.2.3-.4-.5-.1-1-.2-2.1-.5zm33.6 1.4v-.8h-1.7v.5c.6.1 1.2.2 1.7.3zm.1-8.3c-1.4.4-1.4.4-1.6 2 .5-.8.9-1.3 1.6-2zm-8.9-.4l-.5.5 1.4 1.5.5-.4-1.4-1.6zm1.1 8.6c-1.2.2-1.2.2-1.2 1.4.5-.5.8-1 1.2-1.4zm4.1 1.9l.4-.1c-.1-.4-.2-.7-.4-1.1l-.4.1c.2.3.3.7.4 1.1zM324.8 378.8l-1.8 5.4c-.8 2.6-1.6 5.2-2.4 7.7-.4 1.4-1.5 2.3-3.2 2.2 0-1.9.9-3.5 1.5-5.2 1.1-3.4 2.4-6.8 3.6-10.1.4-1.2.8-2.4 1.4-3.6.7-1.3 1.7-1.7 3-.9 1.2.7 2.2 1.5 3.3 2.4 2.1 1.7 4.2 3.4 6.2 5.2 1.6 1.4 3 2.8 4.5 4.3.6.6.7 1.4 0 1.8-.4.2-1.3.1-1.7-.2l-4.3-3.8c-2.3-1.9-4.8-3.6-7.5-5.2l1 3.6c1.7 7.5 3.3 15 4.9 22.5 2.2 10.1 4.5 20.1 6.8 30.2.8 3.7 1.4 7.5 2.3 11.3.9 3.9 2 7.7 3.1 11.6l7.4 27.3c2.2 7.9 4.4 15.8 6.6 23.8 2.4 8.9 4.8 17.7 6.9 26.7 1.4 5.9 3.6 11.4 5.2 17.2 2 7.3 5 14.2 7.5 21.2 1.6 4.5 3.2 9 5.1 13.5 1.1 2.6 2.6 5.1 3.9 7.7.4.8.8 1.4-.3 2.1-1.1-1-2.4-1.9-3-3.4-2.7-6.7-5.5-13.5-8.1-20.2-3-7.7-5.9-15.5-8.7-23.3-1.3-3.6-2.2-7.3-3.3-11-2.3-7.5-4.7-14.9-6.9-22.4-1.8-6.1-3.4-12.3-5.1-18.5-1.3-4.7-2.5-9.4-3.7-14.1-2.4-10.2-4.8-20.5-7.2-30.8-1.7-7.1-3.7-14.2-5.2-21.4-1.5-7-2.5-14.2-3.8-21.2-.8-4.2-1.7-8.5-2.6-12.7-1.5-6.5-3.1-13-4.7-19.5-.3-.2-.5-.2-.7-.2zm30.9 125c.2-.1.5-.2.7-.2-1.5-5.5-3-11.1-4.6-16.6l-.5.1c1.4 5.5 2.6 11.2 4.4 16.7zm-5.5-22.5c-.1 0-.2 0-.3.1.2.8.4 1.5.5 2.3l.5-.1c-.2-.8-.4-1.5-.7-2.3zm7.4 27.3l-.4.2.6 1.7.3-.1-.5-1.8zM186.9 79.2c.3.4.6.7.8 1.1 1.8 3.2 3.6 6.4 5.3 9.6 3 5.6 5.8 11.3 8.8 17 1.3 2.5 2.7 4.9 4.1 7.3 3 5.3 6 10.7 9.2 16 7.4 12.3 13.7 25.1 20.1 37.8 2 3.9 4.1 7.7 6.2 11.6l7.1 13c1.3 2.3 2.8 4.5 4.2 6.7 4.2 6.4 8.3 12.9 11.6 19.8.6 1.2 1.4 2.3 2.4 3.9.8-2.2 1.5-4.1 2.1-6 .8-2.5 1.4-5.1 2.1-7.6.1-.3.1-.7.3-.9.2-.3.7-.5 1-.5.3.1.7.5.8.7.1.5-.1 1.1-.2 1.6l-2.6 10-1.9 6.4c-.4 1.1-1.8 1.5-3 .7-1.9-1.2-3.8-2.5-5.3-4-2-1.9-3.9-3.7-6.6-4.7-.3-.1-.7-.2-.8-.5-.3-.8-.9-1.7-.7-2.3.3-1 1.4-.6 2-.2 2.5 1.6 4.9 3.2 7.3 4.9.9.7 1.7 1.5 2.5 2.3l.4-.3c-.5-1.1-.9-2.2-1.5-3.2-4.4-7.9-8.9-15.7-14.2-23-2.2-3.2-4-6.7-5.9-10.1-1.3-2.1-2.6-4.2-3.8-6.4-4-7.1-7.9-14.3-11.8-21.4-3.3-6-6.5-11.9-9.7-17.9-2.5-4.6-4.9-9.3-7.5-13.9-1.8-3.2-3.9-6.2-5.8-9.3l-8-13.6c-3.4-5.7-5.8-12.1-10.5-17.1-1.2-1.3-2.2-2.9-3.3-4.4-.6-.8-1.2-1.5-.2-2.8 1.2 1.2 2.3 2.4 3.4 3.6 1.1 1.1 2.1 2.3 3.2 3.5 0-2.6-2.2-4.7-2.1-7.3 0 0 .3 0 .5-.1zm11.5 25c-.2.1-.3.2-.5.4.5 1 1.1 2 1.6 2.9l.4-.3c-.4-1-.9-2-1.5-3zM184.9 361.5l-5.2 10.2c-1.7 3.5-3.2 7.1-5 10.6l-11.7 23.1c-3.3 6.6-6.7 13.3-9.8 20-2 4.3-3.8 8.6-5.7 12.9l-3.7 7.5c-1.7 3.5-3.4 7-5 10.6-3.4 7.3-6.8 14.6-10.1 22-3 6.9-6.1 13.7-8.8 20.7-2.6 6.8-4.8 13.7-7.1 20.6-1.9 5.8-3.6 11.6-5.3 17.4-.4 1.5-.7 3-1 4.4-.2.8-.2 1.8-1.4 2.1-.9-.7-.7-1.6-.5-2.6.8-3.2 1.5-6.4 2.4-9.5 1.8-6 3.5-12 5.7-17.8 3.9-10.5 7.9-20.9 12.2-31.2 2.4-6 5.3-11.8 8-17.6l9.3-20c2.7-5.9 5.3-11.8 8-17.6 2.7-5.7 5.6-11.3 8.4-16.9 2.4-5 4.7-10 7.1-14.9 2.3-4.6 4.7-9 7.1-13.6 1.7-3.3 3.3-6.6 4.9-9.8l4.7-9.4c.2-.4.3-.8.7-1.7-2.8 1.6-5.1 2.9-7.4 4.4l-10.4 6.4c-.8.5-1.8 1.5-2.5.4-.8-1.2.7-1.6 1.4-2 6-4 12-8 18-11.9 3.4-2.2 4.2-1.9 6 1.6.4.7.7 1.5.9 2.2 1.6 5.4 3.2 10.9 4.7 16.3.3.9.8 2.3-.5 2.8-1.5.5-1.6-1-1.9-1.9-1.3-3.9-2.4-7.9-3.7-11.9l-2.2-6c-.2.1-.4.1-.6.1zM315 315.9c2.6.5 5.1 1 7.7 1.6 1.5.3 2.8 1 3.9 2.2.5.5 1.3.9 2 1.2 6.8 2.8 12.1 7.3 15.5 13.6 2.2 4 2.8 8.6 1.6 13.2-1.7 6.4-4.6 12-9.5 16.6-2.3 2.1-5 3-7.8 4l-3.9 1.2c-5.1 1.9-10.3 1.1-15.3-.3-3.6-1-7.4-2.5-10.5-4.5-4.1-2.7-7.7-6.3-10.2-10.6-.7-1.3-1.3-2.7-1.7-4.2-1-4.1-1.9-8.3-.9-12.5 1.7-7.2 5.6-13 12.2-16.7 1.5-.9 3-2 4.6-2.5 4-1.4 8-2.4 12.3-2.3zm20.5 18.8c.4.7.7 1.2 1.1 1.6 3.1 3.9 3.8 8.4 2.9 13.1-1 5.4-3.9 9.7-8.2 13.1l-4.5 3.7.3.5c2.9-.7 5.6-1.9 8-3.9 4.8-4.2 7.5-9.6 9.2-15.6 1.1-4.1.3-7.9-1.5-11.6-3.6-7.4-14.4-15.7-24.8-15.5-4 .1-7.7 1-11.6 1.7-.7.1-1.4.5-2 .9-3.2 2.4-6.4 4.8-9.5 7.2-2.9 2.2-4.4 5.2-5.2 8.7-.9 3.7-.8 7.5 1.1 11 1.2 2.3 2.4 4.5 3.7 6.7 2.2 3.5 4.7 6.9 8.8 8.5 1 .4 2 .9 3.1 1.3 4.1 1.5 8.2 2.5 12.6 2.1 1.9-.2 3.6-.7 5-2 1.7-1.5 3.3-3 5.2-4.2 2.8-1.8 5-4.2 6.6-7.1 2.2-3.8 3.3-8 2-12.4-.6-1.8-1.4-3.6-2-5.3-.4-.8-.9-1.5-.3-2.5zm-17.6-16.5c-14-2.5-29 7.8-30 19.8.4-1.1.7-2.2 1.3-3.2 1-1.7 1.9-3.6 3.3-4.9 2.4-2.3 5-4.4 7.7-6.5 2.4-1.8 4.8-3.4 7.9-3.8 3.1-.4 6.3-.9 9.8-1.4zM360.1 248.5c4.2-2.8 8.5-5.6 12.9-8.4.1 0 .5 0 .7.2.5.4 1.2.8 1.2 1.2 0 .4-.6 1.2-1.1 1.3-3.5 1.1-6.1 3.7-9.3 5.4-1.6.8-2.9 1.9-4.4 2.9-.4.3-.8.6-1.2.8-2 1.1-2.9.6-3.4-1.5l-3.8-17c-.1-.3-.2-.7-.1-.9.1-.3.3-.8.6-.9.3-.1.9.1 1 .4.4.9.9 1.9 1.1 2.9l2.6 12.4.4.5c1.3-2.1 2.6-4.2 3.8-6.3 3.5-6.3 6.9-12.8 10.5-19.1 1.7-3 3.9-5.8 5.8-8.8 1.2-1.8 2.2-3.7 3.3-5.5l4.8-8c2.5-4.4 5-8.9 7.5-13.4 1.4-2.5 2.8-5 4.1-7.6 2.6-4.9 5.1-9.9 7.7-14.9 1.8-3.5 3.7-7.1 5.6-10.6 1.8-3.4 3.7-6.7 5.6-10.1 3.2-5.6 6.4-11.2 9.5-16.9 3.4-6.3 6.8-12.7 10.1-19 2.2-4.2 4.3-8.5 6.5-12.8.6-1.1 1-2.4 1.5-3.5.5-1.3.4-3.1 2.6-3.1.3 0 .7-.8.9-1.3l2-4.9c.1-.3.1-.7.3-.8.4-.2.9-.4 1.3-.3.3.1.4.7.6 1.1 0 .1-.1.3-.1.5-1.4 3-2.8 6.1-4.3 9-1.9 3.7-3.9 7.3-5.9 10.9-2.4 4.4-4.8 8.8-7.3 13.2l-12.3 21.9c-2.6 4.7-5.4 9.2-7.9 13.9-3.1 5.7-5.9 11.5-8.9 17.2-4.6 8.8-9.3 17.5-14 26.2-2.9 5.3-6 10.5-9.1 15.8-1.2 2.1-2.7 3.9-4 6-3.4 5.4-6.7 10.8-10 16.3-1.7 2.9-3 6-4.5 8.9-.5 1.1-1.2 2.1-1.8 3.1l-1.7 2.9c.3.4.4.5.6.7zM165.4 345.6c1.5-1.7 2.9-1.7 4.2-1.8l26.6-.6c6.4-.1 12.8-.1 19.1-.1.9 0 2.2-.4 2.4.9.1 1.5-1.4 1.3-2.3 1.5-5.4 1.6-10.9 1.4-16.4 1.8-2.6.2-5.2.5-7.8.9l9.4.6c2.7.2 5.4.5 8.1.5 2.4.1 3.8 1.2 4.6 3.4-.5 1.1-1.5.9-2.3.9-6.3-.4-12.6-.8-18.9-1.3-2.5-.2-5-.9-7.6-1.1-3.4-.2-6.8-.1-10.3-.1-.9 0-1.8.1-2.6-.1-.4-.1-.8-.7-1.1-1 .4-.3.7-.9 1.1-1 4.1-.9 8.3-1.8 12.4-2.5 2.1-.4 4.2-.5 6.4-.9h-5l-17.2.3c-.8.2-1.5-.1-2.8-.3zM151.2 610.2c-.5.8-.7 1.3-1 1.8-1.3 2-2.3 2.3-4.3 1-.7-.4-1.2-1-1.8-1.6-1.4-1.5-2-3.3-1.2-5.3.6-1.4 3.3-2.7 5.1-2.6 2 .1 2.4.6 3.2 2.5 1.1 2.5 2.3 4.9 3.7 7.2 1.9 2.9 3.2 6.1 4.4 9.3 1.6 4.1.5 6-4 7.3.2 2.6 1.6 4.7 2.5 7 2.8-.4 5.6-.8 8.5-1.2 0-.5 0-1-.2-1.5l-1.4-4.8c-.2-.8-.4-1.6 1-1.9.9 2.7 1.8 5.4 2.7 8.3.5-.4.8-.7 1-.9 2.2-2 4.9-1.7 6.1.9 1 2.2 1.5 4.5 2.1 6.8.1.3-.3.6-.6 1.1-1.4-.6-1.6-1.9-1.9-3-.3-.8-.3-1.7-.6-2.6-.3-.7-.6-1.5-1.1-2.1-.5-.7-1.4-1.4-2.2-.9-.5.3-1 1.3-1 1.9-.1 1.9.1 3.8.2 5.7 0 .5.1 1.1.2 1.7-.5.1-1 .3-1.4.4-.2-.3-.4-.4-.4-.6-.4-1.5-.7-3-1.1-4.4-.6-1.9-1.8-2.9-3.9-2.9-1.8-.1-3.4.4-5.5 1.7 0 1.7.8 3.2 1.5 4.6.5 1 .4 1.6-.9 2.2-.9-2.2-1.7-4.3-2.5-6.4-1.4.4-2.6.7-4.1 1.1.4-2.4 2.6-1.4 3.4-3 0-.2 0-.8-.2-1.4-.7-2-1.5-4.1-2.3-6-.3-.8-1.1-1.3-1.6-2.1-.8-1.2-1.7-2.3-2.3-3.6-1-2.3-.7-2.9 1.7-4.7-2.1 2.5-.9 4.6.9 6.5.8.8 2 1.4 3.1 1.7 2.6.6 4-.9 3.2-3.6-.8-3.1-2.3-6-3.9-8.7-.8-1.4-1.9-3-3.1-4.9zm-3.1 2.3c1.6-1.9 2-5.2 1-7-.2-.3-.5-.6-.9-.7-1.3-.4-2.5.2-3.5 1-.9.8-1 1.8-.6 2.8.6 2 1.8 3.3 4 3.9zM431.1 46c-1.3-1.3-3.1-1.4-4.8-1.7-.4-.1-1.1.5-1.4 1l-1.2 2.1c-.3.3-.9.4-1.4.5 0-.4-.2-1 0-1.3 1.4-2.3 2.8-4.6 4.4-6.8 1.7-2.2 3.5-4.3 5.4-6.6-2.3-.6-4.4-1.1-6.6-1.7-2.9 4.2-6.6 8.1-8.5 13.1-.1.4-.4.8-.7.9-.3.2-.8.2-1.1.1-.2-.2-.4-.7-.3-1 .1-.4.5-.8.7-1.3 1.8-3.6 3.9-7 6.4-10.1.6-.7.9-1.6 1.5-2.8-2.7-.5-5-.9-7.4-1.4-.9-.2-2.1.2-2.3-1.2-.1-.8.8-1.1 2.6-.6 3.7.9 7.4 2 11.1 3l4.6 1.2c.9.2 1.7.6 2.8 1-2.8 3.5-5.3 6.6-8 9.9 1.9.8 3.6 1.4 5.6 2.2.6-.6 1.3-1.3 1.9-2.1 1-1.3 1.9-2.7 2.9-4.1.2-.3.4-.7.8-.9.4-.2.8-.1 1.3-.2 0 .4.2 1 0 1.3-1.2 1.8-2.6 3.4-3.7 5.3s-2.6 3.4-4 5c-.7.8-1.4 1.6-1.5 2.9-.1 1-1.2 2-2.9 2-.3-3.6 2.9-5 3.8-7.7zM376.9 631.7c.2-2 .4-3.5.4-5-.2-3.5-.5-7-.8-10.5-.1-1-.2-2.1-.1-3.1 0-.3.4-.8.7-.8.3 0 .8.3.9.5.2.4.1.9.2 1.4.2 3.1.6 6.2.7 9.3.1 2.9 0 5.7-.2 8.6-.1 1-.6 1.9-.9 2.9-.6-.2-1-.2-1.1-.4-2.3-2.8-4.9-5.5-6.9-8.4-1.5-2.1-2.3-4.7-3.4-7.2-.1.6-.2 1.1-.1 1.6l1.2 9.4c.1.9-.1 1.6-1.2 2-.3-.5-.7-1-.8-1.5-.4-3.6-.8-7.3-.9-10.9-.1-1.6.3-3.3.4-5 .1-.9.5-1.3 1.3-1.4 1-.1 1.2.6 1.4 1.3.6 2.4 1.1 4.8 1.9 7.1 1.2 3.9 3.9 6.9 7.3 10.1zM38.2 582.9c.8-1.8 1.5-3.3 2.1-4.7.2-.4.2-1 .5-1.3.3-.3.7-.6 1.1-.7.3 0 .7.4.8.7.3.8.6 1.7.8 2.5.5 1.9 1.6 3.4 2.6 5h.5c.1-.6.4-1.3.3-1.9-.3-4.5-.7-9.1-1.1-13.6-.1-.6-.2-1.3-.1-1.9 0-.3.5-.7.8-.7.3 0 .6.3.9.6.1.2.1.5.1.7.3 4.3.8 8.6 1 12.9.1 2.1-.2 4.3-.4 6.4-.1.6-.7 1.2-1.2 1.5-.2.1-1-.6-1.4-1-1.4-2.2-2.8-4.4-4.3-6.7-1.5 1.6-1.3 5.1-4.4 5.8-1.7-5.3-3.3-10.3-4.9-15.3-.2-.7-.3-1.5-.1-2.1.1-.5.7-.9 1.1-1.3.4.4 1.1.8 1.1 1.3.1 4.6 2.7 8.5 3.4 12.9 0 0 .3.1.8.9zM454.1 628.5c.2-1 .4-1.4.4-1.9.2-2.7.4-5.4-.1-8.1-.5-2.8-.4-5.7-.2-8.5 1-.5 1.5-.2 1.6.6.2.8.1 1.6.2 2.4l.3 6.9c.3 3.4.3 6.7-.5 10-.2.8-.7 1.5-1.2 2.3-1.9-1.1-2.3-3-3.1-4.4-1.8-3.3-3.5-6.8-5.5-10.1-.8 2.4-.3 4.8-.1 7.1.2 2 .5 3.9.8 5.9.1.8-.1 1.4-1.2 1.8-.3-.8-.9-1.7-1-2.5-.3-4.7-.6-9.4-.8-14.1 0-.8-.4-1.9.9-2.1 1.1-.2 1.7.2 2.3 1.3 2 4.1 4.2 8.1 6.3 12.1.2.3.4.6.9 1.3zM407.8 619c.6 3.8-.3 7.8 1.2 11.4.5 1.1.1 1.6-1.1 2.2-.3-.7-.7-1.3-.8-1.9-.6-4.7-1.1-9.3-1.6-14-.1-.5 0-1 0-1.4 0-.8.3-1.4 1.2-1.5 1-.1 1.8 0 2.1 1.1.2.9.5 1.9.8 2.8 1.4 3.9 3.8 7.1 6.9 10.6.2-1.5.5-2.6.5-3.6 0-4.6-.2-9.2-.2-13.9 0-.4.4-.8.6-1.1.4.3 1 .5 1.2.9.2.5.1 1.1.1 1.7.1 4 .3 8 .3 12 0 2.3-.5 4.6-.8 6.9-.1.4-.6 1.1-1 1.1s-.9-.4-1.2-.8c-1.7-2.3-3.4-4.6-5-7-1.3-1.9-2.2-3.7-3.2-5.5zM96.1 638.6c.1 2.5 1.2 4.1 3.2 4.5 1.8.4 3.9-.7 4.7-2.5.1-.3.4-.7.3-.9-.7-2.3 1.1-3.9 1.8-5.7 1-2.5 4-3.3 6.2-1.7.7.5 1.4 1.2 1.8 1.9 1.5 3.3 2.3 6.7 3.3 10.2-1.9.3-2 .3-2.4-1.2-.7-2.4-1.4-4.7-2.2-7.1-.2-.7-.6-1.3-1-1.9-.7-.9-1.8-1.5-3-1.1-1.1.3-1.6 1.1-1.9 2.2-.5 2.2-.1 4.3.9 6.2-.8 1-1.6.6-2.6-.2-.5.6-.9 1.2-1.4 1.7-2.2 2.1-7.4 2.3-9.1-1.8-.5-1.3-.7-2.9-2.3-3.3.6-.9 1.2-1.9 1.6-2.9 1.2-3.3 4.9-4.1 7.3-1.6.9.9.9 1.6-.1 2.4-1 .8-2.1 1.4-3.2 2.1-.5.4-1.2.5-1.9.7zm4.2-3.6c-1-1.5-1.9-1.9-3.1-1.4-1.1.4-1.5 1.6-1.1 3.4 1.3-.6 2.6-1.3 4.2-2zM479.7 614.9c1.1 2.3 2.3 4.4 3.1 6.7 1.1 3 3.2 5.2 5.6 7.8.5-3 .4-5.5.1-8.1-.2-1.8-.5-3.6-.6-5.5 0-.5.5-1 .8-1.5.3.4.9.7 1 1.2.6 5.1 1.3 10.3 1 15.5 0 .5-.1 1-.3 1.4-.4.9-1.2 1.1-1.9.5-.4-.4-.7-.8-1.1-1.3-2.1-2.9-4.3-5.7-6.5-8.7-.1.5-.2 1-.2 1.5.4 2.2.8 4.4 1.3 6.5.4 1.5.2 2.2-1.1 3.5-.3-.7-.5-1.4-.7-2-1.5-4.9-1.6-9.9-1.6-14.9-.2-1.1-.4-2.2 1.1-2.6zM433.7 675.6c1-1.1 1.9-.7 2.8-.3 2.2 1.2 3.4 3.2 4.1 5.4.7 2.4-.7 3.9-3.2 3.6-1.6-.2-3.1-.6-4.9-1-1 1.2-2.3 2.2-4.1 2-1.6-.2-3.1-.6-4.9-.9-1.5 2-3.9 2.6-6.6 2.5-2 0-3.5-.9-4.6-2.6-.5-.8-1.3-1.4-1.9-2 .6-1.1 1.3-2.4 2.2-3.6.5-.7 1.3-1.4 2.1-1.8 1.2-.5 2.3.1 2.8 1.2.5 1.1.2 2.2-.9 2.9-.9.6-1.8 1-2.7 1.4.3 2.2 2.4 3.6 4.5 3.1.7-.2 1.4-.4 2.1-.7 1.6-.7 2.1-1.7 1.7-3.4-.2-.8-.9-1.9.3-2.3 1.5-.5 1.2 1 1.6 1.8.8 1.6 1.9 2.7 3.8 3 2.2.3 3.4-.9 3.1-3.1l-.3-1.4c1-.7 1.6-.1 2 .6 1.3 2.5 3.5 2.7 5.9 2.8.7-3-1.1-5.9-4.9-7.2zm-17.7 2.5c-1.5.4-2.1 1.1-2 2.5 2-.5 2-.5 2-2.5zM269.1 46.5c-3.8-.1-7-2.6-7.8-6.4-.3-1.3-.4-2.7-.2-4 .8-3.3 3.2-5.3 6.6-5.6.5-.1 1.2 0 1.6.2 2.3 1.2 4.1 3.1 5 5.5.5 1.2.5 2.7.7 4 .7 3.7-1.8 6.2-5.9 6.3zm-1.2-11.9c-3-1.4-4-.9-4.5 2.2-.1.7-.1 1.4-.1 2.1-.1 4 4.2 6 7.5 4.6 1.9-.8 2.6-2.1 2.2-4.1l-.3-1.6c-.3-2.1-1.4-3.4-3.4-4.3l-1.4 1.1zM183.5 603.5c1-1 1.8-.5 2.6-.1 2.1 1.1 4.1 4.9 3.8 7.3-.2 2.1-2.6 3.7-4.8 3-1.4-.5-2.6-1.4-4.1-2.2-.9.9-2 2.6-3.7 2.2-1.5-.3-2.9-1.1-4.5-1.8 0 0-.1 0-.2.1-.6 1.6-1.6 2.8-3.5 2.7-1.6-.1-3.8-1.9-4.1-3.6-.2-1.3-.1-2.7.3-4 .5-1.6 1.6-3 3.4-2.9 1.7.1 3 1.2 3.8 2.9.6 1.1 1.2 2.3 1.9 3.3.4.6 1 1 1.7 1.3 1.6.9 3 .4 3.6-1.4.3-.9.3-1.9.5-2.8.1-.2.4-.6.6-.6.2 0 .6.2.8.4.3.6.5 1.3.8 2 .7 1.7 1.8 2.8 3.7 2.9 1.6.1 2.6-.6 2.3-2.2-.2-1.4-.9-2.8-1.6-4.2-.2-.4-.9-.6-1.4-.7-1.3 0-1.6-.6-1.9-1.6zm-17.5 5.5c0 2.1 1 3.2 2.3 4 .5.3 1.6.1 2.2-.2 1-.7 1.1-3.2.3-4.2-.3-.4-.6-.9-1-1.3-.4-.5-1-1.5-1.3-1.4-.7.1-1.3.7-1.8 1.3-.3.6-.5 1.4-.7 1.8zM485.9 88.3c1.4-1.2 2.9-2.2 4.1-3.5 1.5-1.5 3.1-3 4.1-5 .4-.9 1-2.2 2.6-1.9-.6 4.1-9.1 12.5-13.3 13.2-1.1-1.9-.2-3.6.7-5.5-1.4.7-2.6 1.3-3.9 1.9-.5.2-1.1.3-1.6.4-1.4.1-2.2-.5-2.1-1.9.1-1.1.2-2.3.7-3.3 1.3-2.8 2.8-5.6 4.2-8.3.2-.4.7-.7 1.1-1.1 1.3.8.8 1.6.3 2.5-1.2 2.1-2.5 4.3-3.6 6.5-.5 1.1-1.3 2.2-.4 3.8.9-.3 1.8-.5 2.6-1 1.9-1.3 3.7-2.8 5.5-4.2.5-.4.9-.7 1.5-1.1 1.1 2.2-1.1 2.8-1.5 4.1-.5 1.4-1.1 2.8-1.6 4.1.2 0 .4.2.6.3zM55.8 582.6c.2 1.5.4 2.9.6 4.3.1.9-.1 1.6-1.5 1.7-.2-.9-.3-1.8-.5-2.6-.3-1.3-.7-2.6-.9-3.9-.2-1-.1-2-.1-3.1-.2-2.6-.4-5.2-.5-7.9 0-.5 0-1.1.1-1.6.1-.3.6-.6.9-.6.3 0 .7.4.8.7.1.5.1 1.1.1 1.7l.5 8.8h6.6c-.3-3.8-1.5-7.6-1.2-11.4 1.3-.4 1.7.3 1.8 1.3.2 2 .4 4 .8 5.9.7 3.1 1.5 6.2 2.3 9.3.2.6.4 1.2.4 1.9 0 .4-.5.9-.7 1.3-.4-.3-1-.5-1.1-.9-.5-1.5-.9-3.1-1.3-4.6-.1-.3-.3-.6-.5-.9-2.3-.3-4.4-1.1-6.6.6zM42.4 651.7l2.4-1.1c.1.1.1.2.2.4-.2.4-.5.7-.8 1.1 2.4 1.3 4.5 3.3 7.3 3.6 1.2-1.5.8-2.9.3-4.1-1.2-3.1-2.5-6-3.8-9-.1-.2-.3-.3-.6-.6-1.9 1.5-4 1.7-6.3 1.3-3-.5-4-2.3-2.7-4.9.5-.9 1.1-1.7 1.7-2.6.9-1.5 2.3-2.3 4-2 1.7.3 2.9 1.3 3.6 3.1l5 12.7c.5 1.3.8 2.8 1 4.2.3 2.8-1.9 4.4-4.4 3.3-2.6-1.1-4.7-3-6.9-4.5-.1-.4-.1-.6 0-.9zm1-9.6c2.1.1 3.1-1.1 2.7-3.2-.2-.9-.5-1.8-.8-2.7-.5-1.2-1.2-1.7-2.4-1.2-.8.3-1.5.9-2 1.6-.8 1.1-1.9 2.4-1.2 3.9s2.3 1.5 3.7 1.6zM509.9 683.6c-1.8.4-1.8.4-3.1-1.3-.4.3-.8.5-1.1.8-2.7 2.4-5.8 2-8.7.7-.9-.4-1.7-1.4-2.4-2.3-.7-.9-1.2-1.9-1.7-2.7.6-.8 1.1-1.6 1.7-2.3.8-.9 1.6-1.8 2.6-2.4 1.9-1.2 4 .2 4 2.4 0 1-.6 1.5-1.3 1.8-1.2.6-2.5 1.1-3.8 1.7.8 2.3 2.4 3.1 4.5 3.3 2.2.2 3.9-.5 5.1-2.3.1-.2.3-.5.2-.7-.9-1.9.7-3.1 1.2-4.5.8-2.3 4.4-3.8 6.8-3.2.7.2 1.8.2 1.8 1.2.1 1-.6 1.6-1.8 1.7-.1-.5-.2-1-.4-1.7-1.1.4-2.3.5-3.2 1-1.9 1-2.5 3-1.8 5.1.5 1.1.9 2.4 1.4 3.7zm-13.7-5.9c1.1 0 2.1-.2 2.9-.9.3-.3.3-1 .1-1.4 0-.2-.9-.3-1.2-.1-.8.5-1.7 1-1.8 2.4zM396.1 627.5c.3 4.7-4.2 7.9-8.5 6-4.4-1.9-6.2-6.7-5.3-11.7.4-2.1.9-4.2 3.1-5.4 2.5-1.4 5.2-1 6.9 1.2 2.7 3.3 3.5 5.4 3.8 9.9zm-12.3-3.7c.2 3.2 1.5 5.9 3.8 7.5 2.5 1.8 6.2.5 6.6-2.5.5-3.9-.6-7.4-3.4-10.2-2.1-2.1-4.8-1.5-5.9 1.3-.5 1.3-.8 2.6-1.1 3.9zM457.7 622.5c.1-2.3.7-4.9 2.5-7.1 2.3-2.9 6.4-3 8.1 1.3 1.2 2.9 2.3 6 2 9.2-.5 3.9-2.4 6.6-5.8 6.8-2.1.2-3.9-.3-4.9-2.5-1-1.9-1.9-4.8-1.9-7.7zm5.9-7.4c-2.1.9-3.3 2.6-3.7 4.6-.5 2.8-.5 5.6.5 8.3.7 2 1.9 3 3.4 2.9 1.9-.1 3.3-1 4.1-2.8.8-1.7.6-3.4.4-5.2-.3-3.2-1.5-6-4.7-7.8zM503.2 626.5c-.4 1.5-.6 3.1-1.1 4.6-1.2 3.2-6.1 4-8.4 1.5-.5-.6-1-1.3-1.2-2-1.5-4.5-1.6-9.1.2-13.6.5-1.3 1.4-2.4 2.7-2.8 1.3-.5 2.3-.3 3.5.7 3.2 2.8 3.5 6.6 4 10.4.1.4 0 .8 0 1.2h.3zm-2.1.3c-.2-4.1-.8-7.4-3.1-10.2-1.1-1.3-1.9-1.4-3-.1-.4.5-.8 1.2-1 1.9-1.3 3.6-.7 7.2.1 10.8.1.5.5 1 .8 1.5.8 1.5 2.2 1.4 3.6 1.3 1.3-.1 2-.9 2.3-2.1.1-1.2.2-2.4.3-3.1zM455 69.4c0-.7-.2-1.5-.1-2.1.2-1 .7-1.9 1.1-2.9.9-2.8.6-3.7-1.7-5.4-.3-.2-.5-.4-.9-.7l-2.8 3.3c-.3.4-.5.8-.9 1.1-.4.3-.9.3-1.4.5 0-.5-.2-1.1.1-1.5.6-1 1.3-2 2-2.9.9-1.1 2-2.2 2.6-3.4 1.6-3.1 4.6-4.2 7.5-5.4.6-.3 1.4-.3 2.1-.3 1.2-.1 2.4.2 2.9 1.3.5 1.2-.1 2.5-1.1 3.2-1.7 1.1-3.6 2-5.4 3-.6.3-1.3.5-2.3.8 2.6 2.5 1.8 5.1.8 7.8-.4 1-.7 2-1.1 2.9l-.7 1.1c-.2-.4-.5-.4-.7-.4zm-.1-12.7c3-.7 5.8-1.5 8.1-3.4.6-.5 1.1-1.2.5-2-3.5-.7-7.2 1.5-8.6 5.4zM433 626.2c-.2.9-.3 2.2-.8 3.5-1.3 3.2-5.2 3.8-7.7 1.5-3.7-3.4-4.3-10.5-1.8-14.3 1.6-2.4 3.7-3 6-1.3.9.6 1.7 1.5 2.2 2.4 1.3 2.4 2 5 2.1 8.2zm-7.4-10c-.7.8-1.5 1.5-1.9 2.3-1.5 3.3 0 8.9 1.9 11 1.9 2 4.8.9 5.1-1.3.6-3.6.1-7-2.2-9.9-.5-.7-1.6-1.1-2.9-2.1zM62.5 674.7c.4 1.7.9 3.6 1.4 5.6-.7.6-1.4.9-1.9-.1-.4-.7-.6-1.5-.9-2.2-1-3.3-1.9-6.5-2.1-10-.1-1.9.1-3.8 1-5.6.8-1.7 2.4-2.2 4-1.3.8.5 1.6 1.1 2.2 1.9 1.1 1.6 2.1 3.2 2.8 4.9.9 2 .3 3.8-1.6 4.9-1.6.8-3.2 1.2-4.9 1.9zm-.7-2.1c1.2-.3 2.2-.6 3.2-.9 1.3-.4 2-1.5 1.6-2.8-.3-1.2-.8-2.4-1.4-3.5-.7-1.3-2.2-2-3.1-1.8-.9.3-1.8 1.7-1.6 3.2.3 2 .9 3.9 1.3 5.8zM453.8 46.8c-1.8.5-3-.2-4.3-.6-.4-.1-.7-.3-1.1-.5-4.2-2-4.2-2-7.3 1.9l3.3 2.6c.7.5 1.4 1 2 1.7.2.3.1.9.2 1.8-2.8-1.8-5.1-3.3-7.4-4.8-1.6 1.2-2.8 2.6-3.7 4.4-.7 1.5-.6 1.9.9 2.6l6.2 3.1c.7.3 1.8.7 1.2 1.7-.6 1-1.3.2-2-.2-1.9-1-3.9-1.9-5.8-2.7-3-1.3-3.4-2.4-1.9-5.3 1.3-2.4 3.2-4.2 5.2-5.9 1.1-.9 2.2-1.8 2.6-3.3.3-1 1.1-1.1 1.9-.9 1.4.3 2.8.6 4.1 1.2 1.8.7 3.5 1.6 5.2 2.4.2 0 .4.3.7.8zM81.5 590.3c-2.1.6-2.1.6-2.6-1.1-.7-2.5-1.5-5-2.3-7.8-1.3.2-2.5.3-3.6.7-.6.2-1.1.9-1.3 1.5-.4 1-.6 2.1-.9 3.2-.3.9-.8 1.5-2.1 1.1l.2-1.4c1.2-4.9 2.4-9.7 3.7-14.6.2-.8.3-1.6.7-2.3.4-.8 1.3-.7 1.7 0 .5 1.2.9 2.4 1.3 3.6 1.3 4.3 2.5 8.5 3.7 12.8.3 1.5.9 2.8 1.5 4.3zm-9.1-10c1.4-.2 2.3-.4 3.6-.6-.7-2.1-1.2-3.9-2-6.3-1.3 2.4-1 4.5-1.6 6.9zM184.3 578.5h-2.7c-1.3.1-2.2.6-2.5 2-.3 1.2-.9 2.4-1.5 3.5-.2.3-.9.3-1.4.4 0-.4-.3-1-.1-1.3 2.7-5.2 3.5-11.1 5.4-16.5.2-.5.6-1.3 1-1.4.8-.2 1.2.5 1.4 1.3.5 2.2 1 4.5 1.5 6.8.8 3.3 1.1 6.7 2.9 9.8.4.7.5 1.4-.3 1.8-.9.4-1.3-.3-1.6-.9-.4-.8-.6-1.6-.9-2.5-.5-1-.9-2-1.2-3zm-4.3-1.9c1.7-.1 2.7-.1 4-.2-.6-2.6-1-4.8-1.5-7h-.7c-.6 2.2-1.2 4.4-1.8 7.2zM160 569.7c.6 2.8 0 5.6 1.3 8l6.5-.2c1.4-.1 1.7-.4 1.6-1.8-.1-1.9-.4-3.8-.4-5.7 0-1 .1-1 1.4-1.7.2 1.8.5 3.5.7 5.2.3 3.3.9 6.5 2.3 9.5.2.5.5 1.1.5 1.6 0 .4-.5.8-.8 1.2-.3-.3-.8-.4-1-.8-.7-1.6-1.3-3.3-1.8-4.9-.3-.7-.5-1.4-1.4-1.3-2.3.1-4.6.2-7 1.3l.7 3.2c.1.5.4 1.1.4 1.6 0 .3-.3.8-.6.8-.3.1-.8-.1-1-.3-.3-.3-.4-.7-.5-1.1-.8-4.1-1.5-8.1-2.2-12.2-.1-.7.1-1.4.3-2.1-.3-.1.4-.2 1-.3zM498.2 87c-1.5 1.4-2.9 2.7-4.5 4.3.8.6 1.5 1 2.1 1.6.9.7 1.7 1.4 2.5 2.2.6.6.4 1.3-.4 1.7-2-1.4-4-2.8-6.1-4.2-1.2 1-2.2 1.8-3.5 2.8 2.6 2.3 5 4.4 7.3 6.4-.5 1-1.2 1.1-1.9.6-2.2-1.8-4.5-3.6-6.6-5.5-.8-.7-.7-1.8 0-2.6.8-.9 1.8-1.6 2.6-2.4 2.2-2 4.4-4 6.7-6 .3-.3.8-.6 1.2-.6.9 0 2 0 2.8.3 2.3.8 4.6 1.8 6.9 2.8.6.2 1.3.6.9 1.4-.4.8-1.2.7-1.8.3-2.4-1.8-5.4-2.2-8.2-3.1zM222.7 41.6c2.7-1.9 5-3.5 7.6-5.3-.8-1.7-1.7-3.4-2.4-5.1-.3-.7-1.2-1.5-.2-2.1 1-.5 1.3.6 1.6 1.3l1.6 3c.6 1 1.3 1.9 2.1 3.2-.1 2.3 1.4 4.4 2.9 6.4.9 1.2 1 1.2.1 3.1-2.3-2.2-3.1-5.2-5.1-7.8-2.3 1.7-4.7 3.4-7.1 5.1.2 1.2.8 2.1 1.7 2.7.9.6 1 1.3.2 2.2-1.4-.4-2.1-1.5-2.8-2.5-1.7-2.7-3.3-5.5-4.9-8.2-.1-.1-.2-.3-.2-.4l.1-1.3c.4.1 1 .1 1.2.3.6.8 1.1 1.7 1.7 2.6.5.7 1.1 1.6 1.9 2.8zM529.1 119.3c2-.3 3.5 1 4.9 2.5 1 1 .6 2.3.5 3.4-.2 2.1-1.1 4-2.4 5.6-2.1 2.6-7.9 2.6-9.9.1-.2-.3-.5-.7-.6-1-1.4-5 1.5-10.7 7.5-10.6zm1 6.4l-.3-.4c.5-.5 1.1-1 1.6-1.6.7-.8.6-1.6-.3-2.1-.5-.3-1.2-.5-1.8-.5-3.5-.3-6.1 2.4-6.2 6.3 0 2.2 1.1 3.4 3.2 3.6 3.5.4 5.9-1.8 6.2-5.8-.8.2-1.6.4-2.4.5zM477.9 64.9c-3.1-1.5-6.1-3-9.7-3.4-.9 1.1-1.8 2.2-2.7 3.4 1.5 1.2 3.6 1.7 3.8 3.8.1.6-.2 1.2-.8 1.9-.5-.8-.8-1.9-1.6-2.5-.7-.6-1.8-.8-2.7-1.2-.6.7-1 1.1-1.4 1.7-2.1 2.8-2.1 3.1.6 5.4.9.8 2 1.3 3 1.9.6.4 1.5.8.6 2-2.3-1.1-4.9-1.7-6.6-4-1.4-1.8-1.6-2.5-.3-4.5 1.1-1.7 2.4-3.4 3.6-5.1.9-1.3 1.6-2.7 2.4-4.1.6-1.1 1.7-.9 2.5-.7 2.8.9 5.5 2 8.3 3.1.4.2.8.6 1.1.9.2.2.2.6.2.9 0 .2-.2.3-.3.5zM160 64.7c.3-1.2.4-2.4.8-3.5.7-1.9 3.3-2.4 4.9-1.3 1.1.8 2.3 1.3 3.6 1.9 1.7.8 3.4 1.7 4.5 3.4 1.6 2.3 1.6 5.3-.2 7.3-2.1 2.4-4.5 3.1-7.2 1.6-3.7-2-6.4-4.8-6.4-9.4zm1.7-.3c-.1 4.4 3.5 7.7 6.2 8.3 1.8.4 3.6-.2 4.6-1.7 1.1-1.6 1.1-3.3-.2-4.8-.6-.8-1.4-1.6-2.3-2-1.8-.9-3.8-1.6-5.7-2.4-1.4-.6-2-.3-2.5 1.2-.1.6-.1 1.2-.1 1.4zM479.8 677.5c1.4-.1 2.6-.3 4.2-.4-.8-2.1-1.4-3.8-2.1-5.6.6-.6 1.1-.5 1.5.1.7 1.1 1.3 2.2 1.8 3.3.5 1.2 1.1 2 2.6 2 .8 0 1.6.1 1.9 1.2-1 .1-1.9.3-3.1.5.6 1.3 1.2 2.5 1.7 3.7.1.4 0 .8-.1 1.3-.5-.2-1.2-.2-1.3-.5-.9-1.4-1.6-2.9-2.4-4.6-1.3.2-2.5.4-4.1.7.9 1.8 1.7 3.3 2.4 4.7-.9.7-1.6.9-2.2-.2l-1.9-3.8c-.5 0-1 .1-1.6.1-.4-.1-.8-.3-1.6-.6.9-.7 1.6-1.1 2.2-1.6-.8-2.6-1.6-5.2-2.4-7.7 1.1-.9 1.7-.3 2 .5l1.2 3.6c.4 1.2.9 2.2 1.3 3.3zM531.2 648.8c-.4-1.8-.7-3.7-1.1-5.6 1.5-.1 1.8.7 2 1.6l1.5 5.3c.5 2 1.5 3.6 3 5.1.5.4.9.9 1.2 1.5.6 1 .4 1.3-1.2 1.9-.6-1.1-.9-2.5-2.5-2.8-.3.7-.6 1.4-1 2.1-1.4 2.5-4.3 3-6.5 1.1-3.3-2.8-1.2-8.9 1.6-9.8.8-.4 1.8-.3 3-.4zm-4.5 5.4c.1 1 .1 1.6.2 2.1.5 1.7 3 2.7 4.2 1.5.9-.9 1.7-2 2.1-3.1.5-1.2-.8-1.7-1.5-2.4-.3-.3-.5-.8-.8-1.2-.9-1-2-1.1-2.8 0-.7 1.1-1 2.3-1.4 3.1zM84.3 626.4c2.1 5.6 4.1 10.9 6.2 16.4-1 1-1 1-2.7-.4-1.8 1.8-3.9 1.9-6 .4-1.8-1.3-3.4-4.8-2.9-7 .3-1.6 2.2-3.2 4-3.4.5-.1 1.1 0 1.8 0-.5-1.9-2.2-3.8-.4-6zm-3.8 10.3c0 1.4 1.2 4 2.2 4.9 1.8 1.6 4.2.9 4.6-1.3.2-1.2-.2-2.3-1.2-3.2-.6-.5-1.2-1.1-1.6-1.7-.6-.9-1.1-1.5-2.3-1.2-1 .3-1.7 1.4-1.7 2.5zM134.9 73.6c-2.7 1.7-5 3.2-7.4 4.6-.2.1-.4.4-.6.3-.4-.1-.9-.3-1.2-.5-.1-.1.1-.8.4-1 3.6-2.4 7.1-4.8 10.7-7.1 1.3-.9 2.8-1.6 4.1-2.4.6-.3 1.4-.9 1.8.1.4.8-.4 1.2-1.1 1.6-1.3.7-2.5 1.4-3.7 2.1-.4.2-.8.5-1.4 1 1 1.7 1.8 3.4 2.9 4.9 1.4 2.1 3 4.2 4.4 6.2.2.3.6.5.6.7 0 .5-.1 1-.2 1.5-.5-.1-1.2-.1-1.4-.5-2.2-3.1-4.2-6.2-6.3-9.2-.4-.7-.9-1.4-1.6-2.3zM147.3 70.6c.3-1.6.7-3.3 1.9-4.6 1.3-1.4 2.9-1.7 4.5-.7 1.2.7 2.4 1.5 2.8 3.1.3.9 1.2 1.7 1.8 2.4 2.4 2.8 2.1 6.7-.6 8.7-1.4 1-2.8 1.2-4.5.5-4.2-1.6-5.4-5.1-5.9-9.4zm11.2 3.9c-.1-.2 0-.9-.4-1.3-1.7-2-3.4-4-5.2-5.9-.8-.9-1.9-.5-2.5.2-.7.9-1.4 2-1.5 3.1-.4 2.8 1.9 6.5 4.4 7.6 2.8 1.2 5.2-.5 5.2-3.7zM249.6 38.1c0 .7 1.1 1.9-.3 3.3-4.5-4.4-6.3-10.4-9.7-15.6-.7.5-1.3.9-1.9 1.3-.8.6-1.6 1.3-2.5 1.9-.6.4-1.4.9-1.8 0-.2-.3.2-1.2.7-1.5 3-2 6-3.9 9-5.8 1.1-.7 2.2-1.2 3.6-.9.4.9 0 1.3-.8 1.6-1.5.6-2.8 1.4-4.5 2.2 1.5 3 2.8 5.7 4.2 8.5.5 1 1 2 1.6 2.9.6.6 1.4 1.2 2.4 2.1zM121.4 584.1c.3 1.8.3 1.9 1.7 2.3 1.2.3 2.5.7 3.7.6 2.7-.2 3.6-2.6 1.9-4.7-2.4-3-5.4-5.1-9.2-6.2-.8-.2-1.5-.7-2.5-1.1 2.4-2.6 4.9-4.3 7.9-5.2.2-.1.5-.2.7-.1.7.2 1.6.3 1.9.7.5.8.1 1.7-.9 2.1-1-1.5-1.2-1.6-2.6-1-1.5.7-2.9 1.6-4.8 2.6 3.7 1.4 6.4 3.2 9 5.4 1.3 1.2 2.6 2.4 2.9 4.3.2 1.4-.1 2.5-1.3 3.4-2.4 1.9-6.9 1.8-9.2-.3-1.1-1.1-1-1.6.8-2.8zM123.5 603.5c-.5-2.1-.9-4.1-1.4-6.1-.2-.9-.4-1.7 1-2.1.6 1.4 1 2.7 1.3 4.2.4 2.3.5 4.8 1.8 6.9.2.3.4.8.3 1.1-.3 1.4.4 2.6 1 3.9.6 1.4.4 1.7-1.1 2.3-.4.2-.8.5-1.1.8-1.4 1.3-2.9 1.4-4.3.2-1.9-1.7-2.6-4-2.7-6.4 0-1.5.8-2.7 2.2-3.4.8-.5 1.7-.9 3-1.4zm-.1 1.9c-2.8.6-3.6 1.2-3.6 2.8 0 1.9.9 3.5 2.1 4.9.5.6 1.4 1.1 2.1.2.6-.8 1.2-1.9 1.1-2.7-.3-1.7-1.1-3.4-1.7-5.2zM519.8 109.4c.3-.6.5-1.2.8-1.9.5-1.3.2-2-1.1-2.3-4.9-1.3-8.7.4-11.3 4.8-1.6 2.7-1 4.7 1.9 6l3.9 1.8c.4.2.7.6 1.1.9-.7.9-1.4.7-2.2.4l-3.9-1.7c-3.5-1.5-4.6-4.8-2.5-8 .6-.9 1.3-1.8 2-2.7 1.9-2.5 4.4-3.6 7.5-3.4 1.3.1 2.7 0 4 .2 1.5.3 2.6 1.5 2.7 2.7.2 1.5-.7 2.8-2.9 3.2zM203.7 567.3c-2.3 1.1-4.8-.8-6.9.9 1.3 1.4.8 3.4 1.1 5.2.7 3.7 1.2 7.4 1.9 11 .2.9.1 1.6-.9 1.9-1 .2-1.2-.7-1.3-1.3-.3-1.2-.5-2.5-.7-3.8-.6-4.2-1.2-8.5-1.9-12.9-1.7.3-3.2.6-4.8.9-.8.1-2 .5-2.2-.6-.2-1.2 1.1-1.1 1.9-1.2 3.1-.4 6.2-.9 9.3-1.1 1.5-.1 3.1-.6 4.5 1zM185.3 51c2.1 3 3.9 5.7 5.9 8.3.7.9 1.8 1.5 2.7 2.2.9.7 1.6 1.5.9 2.9-1.5-.6-2.7-1.4-3.7-2.6-1.9-2.4-3.7-4.8-5.6-7.1-.6-.7-1.3-1.4-2.1-2.4-2 1.7-4 3.4-6 5.2-1-.9-.4-1.7.3-2.4 1.4-1.3 2.6-2.8 4.2-3.9 2.8-1.8 5.7-3.4 8.6-5.1.2-.1.5-.2.7-.2.4.1 1 .2 1 .4 0 .4-.1 1-.4 1.2-.5.4-1.2.5-1.7.8-1.6.9-3.1 1.7-4.8 2.7zM68.6 642.5c-.9 2-1.7 2.3-3 1.3-.8-.6-1.5-1.4-2.2-2-.8.9-1.3 2-2.2 2.6-1.6 1.1-5.1.5-6.7-.9-1.7-1.5-2.2-3.7-1.2-5.9.7-1.5 1.5-2.8 3.2-3.4 2.4-.8 4.8.1 6.1 2.3 1 1.6 1.9 3.3 3 4.9.9 1.5 1 1.4 3 1.1zm-9.6 1c1.9 0 3.7-2.7 2.7-4.3-.8-1.2-1.7-2.2-2.3-3.6-.1-.3-1-.4-1.5-.3-2.1.3-3.6 2.3-3.4 4.5.1 2.2 2 3.7 4.5 3.7zM92.1 587.3c-.6.2-1.1.4-1.9.6-1.1-5.3-2.3-10.5-3.4-15.7-2.7-.2-5.2 1-7.7.7l-.2-.7c.6-.3 1.3-.8 1.9-1 5.3-1.4 11-1.6 13.7-.5-.1 1-.5 1.3-1.6 1-1.1-.2-2.3-.3-3.7-.4.4 5.7 1.7 10.7 2.9 16zM101.4 667.8c0 1.9 1 2.9 2.4 3.6 2.7 1.4 4.8 1 7.1-1.3.7-.6 1.2-.7 1.8 0-3 5.1-10 4.3-12.3.7-1.7-2.7-1.3-6.6 1-8.8 1.8-1.6 3.5-1.4 4.8.6 1.7 2.6 1.4 3.6-1.5 4.5l-3.3.7zm4-2.9c-.6-.9-1.1-1.7-1.6-2.5-1.6.7-2.3 1.7-2.5 3.2 1.5.5 2.7.3 4.1-.7zM526.5 697.2c0-.5-.1-1.2 0-1.7.6-2.3 2.3-4 3.8-5.7 1.1-1.2 2.7-1.3 4.1-1.6 2.4-.5 3.8.7 4.4 2.4.8 2.3 1.2 4.8 1.7 7.2.3 1.5.2 3 .3 4.5.1.7 0 1.4-.8 1.4-.4 0-1-.5-1.2-.9-.2-.7-.3-1.6-.3-2.3.2-2.8-.4-5.4-1.1-8-.8-3-4.1-3.8-6-1.4-1.2 1.4-2 3.2-2.8 4.9-.3.8-.6 1.5-2.1 1.2zM154.9 570.2c-1.6.1-3.2.2-5 .3.2 1.5.3 2.7.4 3.9.4 2.6.8 5.2 1.3 7.8.2.9.5 1.7.7 2.5.3 1.2.1 1.7-1.4 2.2-.9-1.2-1.1-2.7-1.3-4.2-.5-3-.9-6-1.5-9-.1-.8-.4-1.5-.6-2.2-1.8-.5-2.8.8-4.1 1.2-1.2.4-2.4 1.1-3.8.3.9-1.2 2.9-2.2 6.7-3.2 4.4-1.1 6.6-1.1 8.6.4zM192.9 640.6c.6-.4.9-.7 1.7-1.3-.2 1.3-.3 2.1-.4 2.8-2.4.8-3.4-1.4-5.2-2.1-.3.5-.6 1-.8 1.6-.7 1.7-2.3 2.1-3.8 1.6-1.2-.4-2.4-1-3.3-1.9-2.6-2.6-1.4-6.6 2.2-7.5.6-.2 1.6-.1 2 .3 1.7 1.7 4.3 2.3 5.6 4.5.4.8 1.2 1.3 2 2zm-7.1-2.1c-.3-.8-.4-1.4-.7-2-.6-1.3-1.3-1.5-2.4-.7-1.3.9-1.6 2.4-.8 4 .8 1.5 2.7 2.8 3.9 2.3 1.4-.6 1.7-2 1.7-3.4 0-.2-.2-.4-.3-.7-.5.1-.9.2-1.4.5zM215.4 50.5c1.4 2.3.4 5-2 5.4-2.1.4-4.2.1-5.8-1.4-1.5-1.3-2.9-2.8-4.1-4.4-1.4-2-1.2-4.4-.8-6.7.2-1 .6-2 1.1-2.9.5-.9 1.1-1.8 2.3-1.8 1.6-.1 2.3 1.2 3.3 2.1.8.7 1 1.6.5 2.6-1.1-1-2.2-2-3.4-3.1-.6.4-1.1.7-1.4 1.1-1.9 2.8-1.6 6.5.6 9.1.8.9 1.5 1.9 2.5 2.6.9.6 2.1 1.2 3.2 1.3 2.3.2 3-.5 3.6-2.9.1-.4.2-.6.4-1zM208.7 610.7c-.1 1.7-.5 2-2 1.2-1.1-.7-2.1-1.6-3.3-2.4-.5 1-.9 1.9-1.3 2.8-.5 1.1-1.5 1.6-2.5 1.4-2.4-.3-3.9-1.7-4.7-3.9-.8-2-.5-4 1-5.6 1.8-2 4.4-1.8 6.2.3 1.4 1.7 2.9 3.4 4.4 5 .5.6 1.3.7 2.2 1.2zm-12.7-3.1c0 2.1 1.3 4 2.9 4.5 1 .4 1.7.1 2.2-.8 1.1-2.1.5-4-.7-5.8-1.1-1.6-3.1-1.5-3.9.3-.3.6-.3 1.4-.5 1.8zM201.1 641.9c-1.4.1-1.9-.8-2.2-1.6-.7-1.6-1.4-3.2-2-4.8-.4-1.1-1-1.4-2.2-1.1-.9.3-2 .8-3-.1.7-1.7 2.6-1 3.4-1.8-.5-2.7-1-5.2-1.4-7.7 0-.1.4-.3.6-.5 1.3 1 .9 2.6 1.4 3.9.6 1.2 1 2.5 1.6 3.8h6.5c.5 1 0 1.4-.7 1.5-.7.1-1.4 0-2.1 0-.9.1-1.7.2-2.7.4.5 2.8 3.1 4.9 2.8 8zM464.7 681.6c2.3 2.8 3.8 3 6.4.9.5-.4 1.1-.7 1.7 0 .6.7.1 1.2-.4 1.6-2 1.8-5.9 1.8-8.2-.1-.4-.3-.9-.7-1.2-1.2-.7-1.4-1.9-1.9-3.4-1.7l-.8-.3c.5-1.2 1.9-.7 2.4-1.5.9-1.3 1.8-2.6 2.8-3.8.8-1 1.8-1.1 3-.6 1.1.5 1.8 1.4 1.8 2.6 0 1.2-.3 2.4-1.6 3-.7.4-1.6.7-2.5 1.1zm-.9-2c2.5.2 3.3-.2 3.4-1.7 0-.5-.3-1.2-.6-1.5-.3-.2-1.1 0-1.4.3-1.1.6-1.4 1.6-1.4 2.9zM85.5 670.4c-1 1.1-1 1.1-3.6-.1-1.8.8-3.3 1.7-5 2.2-.8.2-2 0-2.6-.5-1.6-1.2-2.3-3-2.3-5 0-2.3 3.3-4 5.7-3 .9.4 1.6 1 2.3 1.6l2.6 2.5c.9.8 1.8 1.5 2.9 2.3zm-5.8-.5c-1-1.2-2.1-2-2.3-3.6-.1-.8-1-1.3-1.9-1-.9.3-2 .6-1.9 1.8.2 1.4.6 2.9 1.9 3.6 1.4.8 2.8.4 4.2-.8zM374.2 664.6l-.3-2.6c-.1-1.7-.3-3.5-.3-5.2 0-1.6-.9-2.7-1.8-3.8l-4.8-6.5c-.2-.3.1-.9.2-1.7 3 1.8 3.5 5.1 5.9 7 1-2.4.2-5.1 1.6-7.3.2 0 .4 0 .6.1.1.5.3 1 .2 1.5-.8 5.5-.2 11 .1 16.4.1.9 0 1.7-1.4 2.1zM524.2 658.8c-5 3.3-10.4 1.1-11.4-4.2-.2-1 .2-2.3.8-3.1.9-1.1 2.1-2 3.3-2.7 1.2-.7 2.9 0 3.6 1.4.8 1.4.6 2.4-.8 3.2-1.3.8-2.8 1.3-4.3 2 .8 3 2.5 4.1 5.4 3.4.7-.2 1.4-.4 2.1-.5.4 0 .7.3 1.3.5zm-9.4-5.5c1.3.3 2.3.3 3.3-.4 1.5-1 1.6-1.4-.1-2.8-1.2.8-2.5 1.5-3.2 3.2zM493.9 657.7c-.2.3-.3.5-.4.7-.6 1.7-1.7 2.7-3.5 2.6-1.9 0-3.9-1.5-4.5-3.4-.6-1.7-.3-3.3 1.1-4.6 1.4-1.3 3.3-1.5 4.8-.4 1.6 1.2 3 2.6 4.5 3.9l.7.7c.9.7 1.7 1.8 2.8.2.7.9.7 1.7.1 2.1-.4.3-1.3.4-1.7.2-1.4-.5-2.5-1.3-3.9-2zm-3.7 2c.2-.1 1-.2 1.2-.6.4-.8 1-1.9.7-2.6-.5-1.2-.9-2.9-2.5-3.2-.5-.1-1.2.2-1.7.6-1 .8-1.2 1.9-.7 3.2.4 1.4 1.1 2.5 3 2.6zM384.4 687.1c-1.6.8-1.6.8-4.5-1.6-.1.2-.3.4-.3.6-1 2.6-2.3 3.3-4.7 2.1-1.3-.7-2.4-1.8-3.3-2.9-1.1-1.3-.6-2.9.2-4.3 1.9-3 6-4 8-.1 1.1 2.3 2.4 4.4 4.6 6.2zm-6.9.3c1.7-2.7 1.1-5.1-.6-7.3-.2-.3-.8-.6-1.2-.6-1.8 0-3.6 2.6-3.1 4.3.6 1.8 2.9 3.5 4.9 3.6zM269.2 231c1 .8.9 1.6.9 2.5.1 4.6.2 8.2.4 13.6 0 .8.4 1.7.5 2.5.1.9-.2 1.6-1 1.7-.9.1-1.2-.5-1.2-1.5-.2-4-.4-7.9-.5-11.9 0-1 0-1.9-.1-2.9-.4-1.3.1-2.6 1-4zM510.2 651.8c-.9 1.5-2.1 1.3-3.1 1.4-1 .1-2 .2-3.5.3 1.2 2.2 2.2 4.2 3.3 6.3-2 .2-2.6-1.1-3.3-2.2-.7-1.1-1.3-2.2-1.8-3.1-1.3-.3-2.3 1.2-3.8-.1 1.1-.7 2-1.3 3-2-.5-2.2-1.1-4.6-1.6-7 1.7-.3 1.8-.3 2.2 1.2.5 1.7 1 3.4 1.5 5.2h7.1zM145.5 643.4c-.4.3-.6.5-.9.6-.2.1-.5 0-.9 0l-1.1-4.3c-.4-1.6-.8-3.3-1.4-4.8-.8-2-2.1-2.2-3.3-.4-1.6 2.4-2.1 5.2-1.7 8 .1.9.5 1.8-1.1 2-.7-1.8-2-3.5-.5-5.6 1.1-1.6 1.6-3.7 2.8-5.2 2-2.6 4.3-2.2 5.6.8.4 1 .7 2 .9 3l.7 3c.2.9.6 1.8.9 2.9zM484.7 659c-1.1 2.4-3.9 3.6-6.4 2.8-1.5-.5-2.8-1.5-3.5-3-.3-.6-.7-1.1-1.1-1.7.8-1 1.6-2.1 2.5-3.2.5-.6 1.1-1.2 1.7-1.7.9-.7 2-1.3 3-.5.7.6 1.2 1.5 1.3 2.4.2 1-.8 2.3-2 2.7-.7.2-1.6.2-2.4.3-.4.1-.8.1-1.1.2.3 2.6 2.5 4 4.7 3l2-1.2c.5-.1.9-.1 1.3-.1zm-7.6-3.7l.3.6c.9-.1 1.8-.1 2.7-.4.8-.3 1-1.5.4-2.2-.6-.7-1.3-.5-1.8.1-.6.5-1.1 1.2-1.6 1.9zM47.8 673.2c-.3.4-.6.8-1 1.2.5 1 1.4 1 2.3 1 1 0 2.1-.1 3-.3.4-.1.7-.9.7-1.3.3-2.5-1.4-4.5-4.1-4.5-1.2 0-2.3.4-3.5.6-1.2.2-2.4.4-3.5.3-1.1-.1-1.5-1.1-.8-1.9 1.6-1.7 3.2-3.6 5.5-4.4 1.1-.4 2-.3 2.6 1.2-3.6-.8-5.2 1.6-6.9 3.9.8 0 1.7.1 2.5 0 1.6-.1 3.2-.6 4.7-.5 3.1.1 4.8 2 4.8 5.1 0 1.6-.8 2.9-2.3 3.1-1.4.2-2.8.1-4.2-.1-.9-.1-1.9-.6-1.9-1.8 0-1.4 1.1-1.4 2.1-1.6zM527.6 622.8c0 .6.1 1.3 0 1.9-.1.4-.5.7-.7 1l-1-1.1c-.1-.1 0-.3 0-.5l-1-15-.5-6.2c0-.7 0-1.5.9-1.4.4 0 .8.9.9 1.4l1.4 19.8v.1zM55.9 608.7c.2.3.6 1 .9 1.8.4 1 .8 2.1.9 3.2.1 1.4.2 3-1.4 3.8-1.5.8-3.1.7-4.5-.2-2.8-1.7-3.8-6.4-1.9-9.1.8-1.2 2.2-1.3 3.6-.5.6.3 1.2.5 2.4 1zm-3.5-.1c-1.7 1.2-2.3 3-1.8 4.5.5 1.7 2.5 3.4 4 3.3.9 0 1.6-.4 1.6-1.4-.1-1.3-.2-2.6-.4-4-.8.1-1.3.2-1.8.2-.6-.9-1.1-1.7-1.6-2.6zM85.6 613c1 1.7.1 4-1.8 4.3-.9.2-1.9.1-2.8-.2-2.6-.7-5.4-4.5-5.4-7 0-2.9 2.7-5.5 5.6-5.1 1.5.2 2.3 1.5 1.9 3.6-.6-.5-1.1-.9-1.4-1.3-.5-.9-1.2-.9-2.1-.6-1.8.7-2.8 2.5-2.3 4.2.6 1.9 1.7 3.6 3.7 4.5 2.1.9 2.9.6 3.9-1.5.1-.3.3-.5.5-.8.1-.1.2-.1.2-.1zM440.9 653.8c-.1 1.6-1.1 1.9-2.5 2.1l3.7 4.7c-1.9.7-2.5-.6-3.3-1.5-.8-.9-1.6-1.9-2.4-2.9-1.3.1-2.4.2-3.6.3l-.3-.4.9-1c1.5-1 1.6-1.4 1.1-3.1-.5-1.4-.9-2.8-1.4-4.3 1-.7 1.5-.4 1.8.5.4 1.1.9 2.2 1.4 3.3.4 1.1 1.1 1.6 2.3 1.7.9.1 1.6.4 2.3.6zM92.7 611.4v-4.4c-2.9.9-4.4 2.8-4.2 5 .2 1.9 1.6 3 3.6 3.2 2.1.2 3.4-.5 3.8-2.4.5-1.8.9-3.7-1.3-4.8.5-.8 1-.8 1.4-.3 1.5 1.8 1.6 3.8.9 5.9-.7 1.9-2.2 2.9-4.3 2.9-.9 0-1.9 0-2.8-.3-2.1-.6-3.3-3-2.8-5.2.6-2.2 1.9-3.9 4-4.8 1.6-.7 2.7-.1 2.8 1.7.1 1.3.3 2.7-.7 3.7 0-.2-.2-.2-.4-.2zM92.9 666.8c-.4-1.1-.7-1.9-1-2.6-.9-.6-1.6-.3-2.3.5-.9 1-1.4 2.1-1 3.5.8 3 3.8 4.6 6.7 3.5 1.1-.4 2.1-.8 3.6-1.4-1.7 2.7-5.3 4-7.9 3.1-2.5-.8-4.3-3.4-4.2-6.1.1-1.8 1-3.2 2.3-4.3 1.1-1 2.6-1 3.5-.3 1.1.8 1.2 2 .3 4.1zM510.2 127.2c.6-.7 1.1-1.4 1.7-1.9l5.8-4.5c.3-.2.6-.5.9-.8 2.8-3 2.6-3.9-1-5.7-.3-.1-.6-.2-.8-.4-.2-.2-.3-.6-.3-.8.1-.2.4-.5.7-.5 1.6-.2 5.1 2.2 5.3 3.9.1.8-.3 1.9-.8 2.6-1.6 2.5-4.1 4.2-6.4 6-.9.7-1.9 1.4-2.8 2.2-.6.3-1.1.7-2.3-.1zM402.4 680c-2.6 2.1-2.3 4.6-1.7 7.3-.8.6-1.5.7-1.9-.3-.7-1.5-1.2-3.1-1.9-4.8 1.8-.1 2.6-1 3.5-2.1 1.7-2 2.8-2 4.7-.1.9.9 1.6 2 2.3 3 .6.9 1.2 1.9 1.7 2.9.2.3.1 1.1-.1 1.2-.4.2-1.1.2-1.4-.1-.4-.4-.6-1.1-.9-1.6-1.1-2-2.1-4.1-4.3-5.4zM273.3 252.6c-1-.7-1.1-1.6-1.1-2.6-.1-2.6-.1-5.1-.2-7.6-.1-3.6-.2-7.2-.2-10.7 1.8-.4 2-.2 2 1.5 0 5.4.1 9.9.2 16 .1 2 .2 2-.7 3.4zM384.9 658.5c-.1.5-.3 1.6-.6 2.6-.8 2.3-2.7 2.9-4.8 1.7-2.8-1.6-3.3-6.2-.8-8.3.6-.5 1.6-.8 2.4-.8 1.8.1 3.8 2.5 3.8 4.8zm-4.3-3.3c-2.4 1.8-2.4 4.6-.2 5.8 1.2.6 1.7.4 2.3-.7 1.1-2.3.8-3.3-1.3-4.7-.3-.1-.6-.2-.8-.4zM222.3 54.6c-1.5-.5-1.7-2-2.2-3.2-.8-1.9-2-3.4-3.6-4.6-2.3-1.7-3.4-1.5-4.6 1.1-.2.3-.4.7-.5 1 0 .1-.1.1-.4.2-1.1-.3-.9-1.2-.6-2 1.3-3.5 4.3-4.3 7.2-2 1.7 1.3 3.2 2.9 4 5 .3.7.8 1.4 1.2 2.1.5.8.5 1.6-.5 2.4zM422.8 654.5c2.9-2.2 4.5-2.5 6.2-1.1-.9.1-1.7.3-2.5.4 2.7.9 4.9 2.4 6.7 4.4.4.4.8.8 1.1 1.2.9 1.3.8 2.3-.8 2.8-1.2.4-2.6.6-3.9.5-1.2-.1-2.3-.8-2.3-2.5.5-.4 1.2-.8 1.8-1.2.1.1.2.2.3.2-.2.4-.4.9-.6 1.4 1.4 1.3 2.7 1 4.4 0-1.1-1.8-2.5-3.4-4.4-4.3-1.8-.8-3.7-1.1-6-1.8zM59 610.1c1.3 2.4 2.3 5.2 5.5 6.2 1.3-1.6 1.4-3.4 1-5.2-.4-1.8-1.2-3.6-1.7-5.4-.1-.4-.1-1.3.2-1.4.8-.5 1.1.2 1.3.9.6 2.4 1.3 4.8 1.8 7.2.2 1.1.1 2.4-.3 3.5-.6 1.9-2.5 2.5-4.2 1.5-2.2-1.3-3.6-3.3-4.2-5.8-.1-.3 0-.6 0-.9.1-.3.3-.3.6-.6zM408.9 659.2c.9-.8 1.5-.8 1.9 0 1.4 2.6 2.6 5.3 2.4 8.4-.1 2.5-2.3 4-4.5 3-1.3-.6-2.6-1.6-3.5-2.7-1-1.1-.5-2.5.3-4.2.2.6.4.9.3 1.1 0 2 1.2 3.2 2.8 4.1.6.4 1.8.6 2.2.2.6-.4 1-1.6.8-2.2-.5-2.2-1.3-4.2-2.1-6.3 0-.5-.3-.9-.6-1.4zM108.1 606.1c1.1-.4 1.7.1 2.2.8 1.2 1.6 1.2 4.7 0 6.4-.8 1.1-1.8 2-3.4 2-3.5.2-7.5-2.6-8.5-6-.1-.3-.2-.7-.1-.9.3-.4.7-.7 1.1-1.1.3.4.8.7.9 1.1.4 3 2.2 4.9 5.2 5.4 2.6.4 4.6-1.5 4.1-4.1-.2-.8-.7-1.6-1.1-2.3-.1-.4-.2-.8-.4-1.3zM516.9 625.4c-.4-1.1-.6-1.6-.7-2.2-.6-4.9-1.1-9.8-1.6-14.8-.1-.9-.1-1.8 0-2.6.1-.3.6-.6.9-.9.3.3.6.6.9 1 .1.1 0 .3 0 .5.4 4.7.9 9.4 1.3 14 .1 1.1.1 2.2.1 3.3 0 .5-.4.9-.9 1.7zM392.7 652.2c1.3 2.3 3.5 4.2 2.4 7.3-.2.7-.5 1.3-.9 1.9-1 1.4-1.8 1.5-3.5.7s-2.7-2.2-3.2-4c-.3-.9-.5-2.1 1.3-2.5.2.8.3 1.5.6 2.3.5 1.8 1.9 2.9 3 2.5 1.1-.3 1.6-2.5.9-4-.4-.9-.9-1.7-1.4-2.5-.5-.7-.4-1.3.8-1.7zM45.2 597.1c.3 3.6.6 7 .3 10.5-.2 2.3-.5 4.6-.5 6.9 0 1.4.4 2.8.6 4.2.1.4 0 .9-.1 1.5-1.5-.9-1.9-2.1-1.9-3.5 0-1.9-.1-3.9.1-5.7.6-4.1.5-8.1.1-12.2 0-.9.1-1.6 1.4-1.7zM535.6 623.9c-1.2.1-1.7-.7-1.8-1.7-.3-1.9-.5-3.8-.6-5.7-.2-3.1.4-6.2-.7-9.2-.1-.3.3-.8.5-1.1.4.2 1 .3 1.1.6.4 1.4 1 2.9 1 4.4-.2 4.1-.3 8.2.7 12.3.1 0-.1.2-.2.4zM44 607.8c-.4.6-.6 1.6-1.1 1.7-.5.1-1.3-.4-1.8-.8-.4-.3-.7-.9-.9-1.4-1.9-3-3.7-6-5.5-8.9l-.3-.4c-.5-1-.4-1.8.3-2 .8-.3 2 .4 2.3 1.2.9 3.4 3 6.3 4.9 9.2.3.6 1.1.8 2.1 1.4zM460.6 654.3c-2.5.5-2.7.8-2.7 2.9 0 1.8.7 3.3 1.8 4.6 1.6 1.9 4.7 1.3 5.6-1 .1-.3.3-.7.5-1.2.6 2.6.3 3.2-1.8 3.9-3.6 1.1-5.9 0-7.1-3.6-.3-.7-.4-1.5-.5-2.3-.4-2.4 0-3.2 2.2-4 1.1-.4 2.2-1 3.8-.3-.3 1-.6 2-.9 2.9-.2 0-.3 0-.5-.1-.2-.7-.3-1.3-.4-1.8zM205.3 60.5c-1.1-1.4-2-2.4-2.7-3.5-2.3-3.2-4.5-6.5-6.7-9.8-.5-.7-1.6-1.7-.5-2.4 1-.7 1.5.6 1.9 1.3l5 7.6c.8 1.2 1.9 2.3 2.9 3.4.9.9.9 1.8.1 3.4zM110.8 571.4c.4 1.9.9 3.8 1.2 5.7.4 2.4.7 4.7 2.1 6.8.2.3.3.8.2 1.1-.2.5-.5.9-.9 1.1-.2.1-.8-.4-1-.7-.6-1.6-1.3-3.3-1.7-5-.6-2.5-1.1-5-1.6-7.5-.3-1.1.1-1.8 1.7-1.5zM213.9 579.4c-.5-.8-1.2-1.5-1.4-2.3-.7-3.7-1.3-7.5-1.8-11.3-.1-.4.1-.8.1-1.1 1-.4 1.5-.2 1.6.8l1.6 9.4c.2.9.4 1.9.5 2.8.1.5 0 1 0 1.5-.1 0-.4.1-.6.2zM265.4 12.8c1.3 3.9 2.5 7.7 3.7 11.5.4 1.2.4 2.4.7 3.8-2-.5-2.4-2-2.8-3.3-1.1-3.3-1.9-6.6-2.9-9.9-.2-.9 0-1.5 1.3-2.1zM537.7 683.9l-1-14.9c0-.4.3-.8.5-1.2 1.2 0 1.3.7 1.3 1.4.3 3.5.6 6.9.8 10.4.1 1.5.3 3.1-1 4.3-.2.1-.4 0-.6 0zM111.1 597.8c2.9 5.2 2.2 11.3 5.1 16.4-.8 1.2-1.3 1.3-1.8.1-.8-1.9-1.4-3.9-1.9-5.9-.8-2.9-1.5-5.9-2.2-8.8-.2-.6-.6-1.4.8-1.8zM508.4 622.6c-1.2-.3-1.7-1.2-1.8-2.1-.9-4-1.6-8.1-2.4-12.2-.1-.4.2-1.3.5-1.4.8-.3 1.1.5 1.2 1.1.3.9.5 1.9.6 2.8l2 10.8c.1.2-.1.5-.1 1zM420.4 654.9c.5 0 1-.2 1.4 0 1.3.7 2.3 3.1 1.9 4.6-.4 1.6-1.6 2.7-3.4 2.9-4.2.5-7.2-3.1-5.8-7.2.1-.2.4-.3.9-.6.3 1.6.5 3 .9 4.3.3.8 1 1.7 1.7 2.1 1.3.7 3.2.2 3.9-.8.8-1.1.4-2.9-.9-4.1l-.7-.6.1-.6zM75.3 635.3c-.1-.2-.3-.3-.3-.5l-.4-2c-.7.2-1.5.3-2.1.6-1.4.8-2.1 1.9-1.5 3.6l2 5.1c-.5.6-1.1.9-1.7.1-1.6-2-2.4-4.3-2.1-6.9.2-1.9 3.6-4.3 5.6-4.1.8.1 1.4.5 1.5 1.3 0 1.1-.1 2.1-1 2.8zM261.8 27.9c-2-.2-2.6-1.4-3.2-2.5-2.2-4-3.3-8-2.9-9.9.9-.3 1.4.1 1.7 1 .7 2 1.5 4 2.3 6 .5 1.2 1.2 2.4 1.8 3.6.2.6.2 1.1.3 1.8zM473.5 653.7c-.4-.9-.7-1.9-1.9-1.5-1.1.3-2.3 1.5-2.3 2.8.1 1.7.4 3.5.7 5.2.1.8.5 1.5.7 2.1-.8.8-1.4.7-1.8 0l-2-4.6c0-.1-.1-.2 0-.2.6-1.5.9-3 1.7-4.4.5-.8 1.5-1.5 2.4-1.8.8-.2 1.9.1 2.6.5.3.1.1 1.2.2 1.8.1 0-.1.1-.3.1zM158.1 615.5c-.9-2.2-1.6-4.1-2.4-6l2.1-3.3c.8-1.1 1.8-2.1 3.2-2.3 2-.4 2.8.5 2.3 2.6-.7-.4-1.5-1.2-2.2-1.1-1.3.1-1.9 1.2-2.5 2.3-.9 1.8-.4 3.5.3 5.3.5 1.1.4 1.1-.8 2.5zM451.8 671.4c.3.3.7.6.9.9 1.5 3 2.9 6 4.3 9l1.4 2.2c.2.4.4 1.2.1 1.4-.6.6-1.2 0-1.5-.5-.9-1.4-1.9-2.8-2.6-4.3-1.1-2.1-2-4.4-2.9-6.6l-.4-1.8c.4 0 .5-.1.7-.3zM536.4 137.3c0-1.7.8-3 1.8-4.1 2.1-2.1 4.3-4 6.5-6 .5-.4 1.1-.7 1.7-.9.2-.1.7.1.8.3.1.2.1.6 0 .9-.1.2-.3.4-.5.5-3.8 2.5-6.8 5.7-9.7 9.2-.1.1-.2.1-.6.1zM509.1 633.5c-1.6 0-2.5-.7-2.6-1.8-.1-1.5 1.4-3.2 2.7-3.1 1.3.1 2.5 1.5 2.5 2.7 0 1.3-1.1 2.2-2.6 2.2zM531.6 668.3c.2.8.5 1.5.6 2.3.4 3.1.7 6.3 1 9.5 0 .4.2.8.1 1.2-.1.3-.5.6-.8.7-.2.1-.6-.3-.7-.5-.8-4.3-1.6-8.6-.8-13 .3-.1.4-.1.6-.2zM530.4 142c-1.3 0-2.4-.8-2.4-1.8 0-1.1 1.4-2.3 2.9-2.3 1.2 0 2.2.9 2.1 2.1-.1 1.2-1.2 2-2.6 2zM473 638.8c-.1-.8-.3-1.3-.2-1.6.7-2.1 1.2-4.3 1.1-6.5 0-.4.5-.9.7-1.3.4.4 1 .8 1.1 1.2.5 2.1-.8 6.2-2.7 8.2zM433.9 638.4c1.5-3 2.7-6 2.2-9.4.9-.5 1.6-.4 1.7.6.1.9.2 2-.1 2.8-.6 1.8-1.3 3.6-2.1 5.3-.2.5-.8.8-1.2 1.1-.2-.1-.3-.2-.5-.4zM518.3 633.5c-1.1 0-2.2-1-2.2-2.1s.8-1.9 2-2c1.2 0 2.3.8 2.3 1.9 0 1.3-.8 2.2-2.1 2.2zM130.4 646.5c-2-2.4-2.3-5.2-2.3-8.1.9-.3 1.4-.3 1.6.7.2.9.2 1.7.5 2.6.3 1 .7 2.1 1.2 3 .3.9 0 1.4-1 1.8zM398 639.4c0-.5-.1-1-.1-1.4l.9-5.8c.1-.5.4-1.2.7-1.3.8-.2 1.1.5 1.1 1.2 0 2.5-.3 4.9-1.8 7-.1.1-.4.1-.8.3zM213.8 584.8c0-1.1.9-2.3 1.7-2.3.7 0 1.5.9 1.5 1.9 0 1-.6 1.6-1.6 1.7-1 .1-1.6-.4-1.6-1.3zM534.8 630.6c.5-.7.8-1.4 1.3-1.8.2-.2.9.1 1.2.3.6.5.9 2.8.5 3.1-.4.2-1.2.5-1.5.2-.6-.4-.9-1.1-1.5-1.8zM129 635.4c-1.8-1.1-2.2-1.8-1.5-2.5.5-.6 1.2-.8 1.9-.4.8.4.7 1.4-.4 2.9zM528.2 629.9c.6 1 1.2 1.5 1.2 2 0 .4-.6 1-1.1 1.2-.7.2-1.6-.2-1.5-1 0-.7.7-1.2 1.4-2.2zM407.5 654.6c-.6-.7-.9-1.1-1.2-1.6 1.5-.6 1.5-.6 1.2 1.6z"/><path class="st1" d="M102.1 240.2h9.4v46.2h41v-46.2h9.4v105.3h-9.4v-50.4h-41v50.4h-9.4v-105.3zM222.9 240.2h44.7v8.7h-35.3v37.4h33.6v8.7h-33.6v41.6h37v8.7h-46.3v-105.1zM274.8 240.2h9.4v96.5h34.2v8.7h-43.6v-105.2zM316.9 240.2h9.4v96.5h34.2v8.7h-43.6v-105.2zM402.1 239.1c37.1 0 37.1 44.5 37.1 53.7s0 53.7-37.1 53.7-37.1-44.5-37.1-53.7 0-53.7 37.1-53.7zm0 98.7c27.2 0 27.2-36.7 27.2-45 0-8.3 0-45-27.2-45s-27.2 36.7-27.2 45c.1 8.3.1 45 27.2 45zM489.3 268.5h11.8v14.8h-11.8v-14.8zm0 62.2h11.8v14.8h-11.8v-14.8zM563.2 231.4c11.8 20.2 20.7 43.9 20.7 67.6s-8.9 47.4-20.7 67.6l-7.2-.9c9.8-21.1 18.6-43 18.6-66.7s-8.7-45.6-18.6-66.7l7.2-.9zM663.4 282.8c-.8-2.9-1.5-5.9-2.4-8.8-3-10-8-19.4-14.3-28.5-5.5-7.9-12.2-15.3-19.4-22.3-7.6-7.5-16-14.5-25.4-20.7-8.2-5.4-16.8-10.3-26-14.7-8.9-4.3-17.7-8.7-26.7-12.8-8.5-3.9-17.3-7.7-25.9-11.4-5.1-2.2-10.2-4.5-15.5-6.5-9.1-3.5-18.3-6.8-27.5-10-8.5-3-17-5.9-25.7-8.6-7.2-2.3-14.6-4.4-22-6.3-9.1-2.2-18.3-4-27.4-6-.6-.1-1.1-.3-1.7-.5 1.2-1.2 2.6-1.1 4.2-.9 1.3.2 2.6.4 4 .4-1.8-1.6-4.6-.9-7.2-2 1.1-.1 1.5-.1 2-.1 10.4 1.4 20.4 3.7 30.3 6.5 7.9 2.2 15.7 4.4 23.5 6.8 7.9 2.5 15.6 5.3 23.5 7.7 10.8 3.2 21 7.4 31.3 11.5 15.3 6.1 30.2 12.8 45 19.8 10.9 5.2 21.8 10.4 32.1 16.2 9.3 5.3 18 11.1 26.1 17.6 10.7 8.6 19.9 18.1 28.1 28.1 8.5 10.4 14.8 21.7 19 33.6 3 8.7 4.5 17.4 4.7 26.4 0 .9.2 1.9.6 2.8 3.3 8.1 4.7 16.4 4.9 24.9.1 8.3-1.1 16.5-3 24.7-1.4 6.2-3.7 12.3-6.3 18.2-2.2 5-4.7 10-8.4 14.6-3.2 4.1-6.2 8.3-9.7 12.3-6.8 7.6-14.4 14.8-22.5 21.6-7.7 6.4-16 12.3-24.9 17.7-7.4 4.4-15.1 8.7-22.7 13-.3.2-.6.3-.9.4-6 2.4-10.9 5.8-16.1 9.1-6.8 4.4-13.9 8.6-21.1 12.5-8.7 4.7-17.5 9.2-26.6 13.4-9.5 4.4-19.5 8.2-29.9 11.4-9.4 2.9-18.8 5.5-28.5 7.5-5.5 1.2-11 2.3-16.6 3.2-9 1.4-18 2.8-27 3.8-7.6.9-15.2 1.4-22.8 1.9-5.8.4-11.5.5-17.3.7-2.6.1-5.1-.1-7.7-.1-5.1 0-10.3 0-15.4.1-1.5 0-3 .3-4.5.5-10.8 1.4-21.6 2.6-32.5 3.3-4.8.3-9.6.6-14.4.7-5.9.2-11.7.3-17.6.4l-5.3-.2-6.6-.2c-4-.2-8-.3-12-.6-9.8-.6-19.4-1.7-29-3.2-7.6-1.2-15-2.8-22.5-4.5-11.6-2.7-22.6-6.7-33.2-11.2-3.1-1.3-6.1-2.8-9-4.3-4.5-2.4-9.8-3.6-14.5-5.7-2.9-1.2-5.7-2.5-8.5-3.8-1.9-.9-3.9-1.7-5.7-2.6-3.3-1.7-6.4-3.4-9.6-5.1-1.3-.7-2.7-1.3-4-2.1-3.2-2-6.2-4.4-9.6-6.2-6.2-3.2-10.6-7.9-16.2-11.5-1.1-.7-2-1.7-3-2.6-3.5-3.2-7.3-6.2-10.5-9.5-6-6.1-11.4-12.6-16.2-19.3-1.6-2.2-3.4-4.3-4.8-6.6-2.6-4.2-5.1-8.5-7.4-12.8-6.4-12-11.8-24.2-16.3-36.7-2.7-7.5-4.6-15.1-5.5-22.8-.6-5.4-1.4-10.8-1.6-16.2-.2-5.9.2-11.8.4-17.6.1-3.6.4-7.3.6-10.9.5-9 2-18 4.3-26.9 3.2-12.4 7.8-24.4 14.8-35.9 6-9.8 13.2-18.9 21.2-27.8 6.2-6.9 13-13.4 20.3-19.6 11.5-9.8 23.6-19 37.4-26.9 8.1-4.6 16.1-9.3 24.5-13.5 13.7-7 28.2-12.8 43.3-17.8 14.9-5.1 30.3-9.2 46.2-12 10.6-1.9 21.4-3.1 32.2-3.4 11.3-.4 22.1 1.2 32.7 4.2 1.5.4 3.1.6 4.7.6 9.9 0 19.7.4 29.6 1.3 12 1.1 23.9 2.9 35.7 5 12.7 2.3 25.4 4.9 37.8 8.1 10.6 2.8 21.1 5.9 31.3 9.4 3.1 1.1 6.4 1.7 9.6 2.6 7.4 2.1 15 4 22.3 6.3 7.4 2.3 14.8 4.8 21.9 7.6 8.3 3.3 16.5 6.8 24.2 10.8l11.9 5.9c2.4 1.2 4.5 2.6 6.8 3.9 1.7 1 3.6 1.8 5.2 2.8 5.4 3.4 10.7 6.8 16 10.2 4.6 2.9 9.2 5.8 13.6 8.9 5.6 3.9 10.8 8.1 16.4 12.1 4.4 3.2 9.1 6.1 13.6 9.3 3.8 2.7 7.6 5.4 11.2 8.2 11.5 8.9 21.5 18.6 30.5 29 5.3 6.2 10.4 12.6 14 19.6.2.4.5.7.8 1-.2.2 0 .2.2.1zm-601.7 60.8c-.1 1.1-.5 2.2-.3 3.2.6 4.6 1.2 9.3 1.9 13.9 1.6 10.3 4.1 20.4 7.6 30.4 5.4 15.5 12.5 30.6 23.5 44.4 1.3 1.7 3 3.3 4.8 4.6 4.5 3.3 9.1 6.5 13.9 9.6 5.2 3.4 10.6 6.7 16.1 9.8 5.8 3.2 11.7 6.2 17.7 9.2 16 8 32.8 14.5 50.7 19.7 16.9 4.9 34.2 8.4 52 10.9 2.6.4 5.2.7 7.7 1-.3-.4-.7-.5-1.1-.6-9-2.2-17.9-4.5-26.6-7.5-10-3.4-20-6.8-29.9-10.4-6.2-2.2-12.3-4.7-18.2-7.3-5.9-2.5-11.8-5.1-17.4-8-8.9-4.5-17.2-9.7-25-15.4-9.4-6.8-18-14.2-25.8-22.1-6.1-6.2-11.9-12.6-17.5-19.1-10-11.6-18.4-23.7-24.3-36.9-3-6.8-5.5-13.7-7.3-20.8-.7-3-1.7-5.8-2.5-8.6-.2-1.2-.4-2.4-.6-3.7-.2 0-.4 0-.6.1.6 1.2-.5 2.6 1.2 3.6zm.4-31.2c-.3 5.7 1.3 14.8 3.2 23.8 2 9.8 4.6 19.5 8.2 29.1 2.8 7.3 6.2 14.4 10.6 21.3 3.3 5.1 6.9 10 10.7 14.9 9.3 12 19.7 23.5 31.6 34.1 9.2 8.2 19.2 15.8 30.5 22.3 12 7 25 12.8 38.5 18 7.4 2.9 15 5.4 22.5 8.1 9.4 3.5 19 6.6 28.8 9.3 11.3 3.1 22.9 5.5 34.6 7.7 6.4 1.2 12.9 2 19.5 2.1 12.9.1 25.8-.2 38.7-1.2 8.7-.7 17.3-1.4 26-2.3 15.3-1.6 30.6-3.7 45.7-6.3 7.4-1.3 14.8-2.4 21.9-4.5 11.8-3.4 23.7-6.7 35.4-10.5 16.8-5.4 33.3-11.4 48.9-18.9 6.4-3.1 12.9-6.1 19.1-9.4 10.6-5.7 21.3-11.5 31.2-17.9 9.7-6.3 19.2-12.9 27.7-20.2 9.6-8.2 18.6-16.8 25.9-26.3 3.2-4.1 6.6-8.1 8-12.9 2.5-8.3 4.4-16.6 4.6-25.2.1-4.5-.1-9-.4-13.5-.6-9.1-2.8-17.9-6.4-26.6-5-12.2-11.3-23.9-18.6-35.4-5.7-8.9-11.9-17.6-19-25.9-7.7-8.9-16-17.4-25-25.6-5.7-5.2-11.5-10.3-17.5-15.3-9.3-7.8-19-15.4-29.7-22.2-2.2-1.4-4.4-2.9-6.9-3.9-7.3-2.9-14.8-5.8-22.3-8.4-10-3.6-20.3-6.6-30.8-9.3-8-2-16-4.2-24.1-6-10.3-2.3-20.6-4.3-31-6.1-9.6-1.7-19.3-3.1-29.1-4.1-12-1.2-24.1-2.1-36.1-2.6-11.1-.4-22.2-.4-33.3.2-9.7.6-19.3 1.6-28.8 2.9-16.1 2.2-31.8 5.3-47.4 9.2-12.6 3.1-25.1 6.7-37 11.2-15.4 5.9-30.2 12.7-44.3 20.2-8.6 4.6-16.9 9.6-24.6 15.2-8.3 6-15.9 12.5-22.8 19.6-5.8 6-11.4 12.1-15.6 18.9-4.4 7.1-8.4 14.4-11.5 21.9-6.1 15.3-9.4 30.9-9.6 50.5zm341.5-175.2c0-.1.1-.2.1-.4-3.4-.8-6.8-1.6-10.2-2.3-14.9-3.2-30-5.8-45.3-7.7-9.2-1.2-18.5-2-27.9-2.1-12-.2-24 .7-35.9 1.9-17.9 1.9-35.6 4.9-52.9 8.8-12.2 2.8-24.2 6.2-35.8 10.2-15 5.2-29.5 11-42.8 18.4-7.3 4-14.5 8.2-21.4 12.6-14 8.8-26.2 18.9-37.5 29.7l-1.2 1.9c-.6.6-1.8.8-2.3 1.4-5.7 6.2-11.5 12.4-17 18.7-6.1 6.9-10.6 14.6-15.1 22.2-4.2 7.2-8.2 14.4-12.2 21.7-3.9 6.9-7.1 13.9-9.3 21.2-2.8 9.6-4.5 19.3-3.5 29.1.4 4.1.6 8.2 1.3 12.3 1.6 8.6 3.4 17.2 6 25.7 3.4 10.8 7.8 21.4 13.6 31.5 5.7 9.9 12.8 19.3 21.2 28 1.3 1.4 2.8 2.7 4.3 4.1.3-.3.4-.3.4-.4-.1-.3-.2-.7-.4-1-6.3-11-11.4-22.3-14.8-34-1.8-6.3-3.6-12.7-5-19.1-1.3-6-2.2-12.1-3-18.1-.8-6.5-1.3-13-1.7-19.4-.2-3.9 0-7.9.1-11.9.1-2.8.2-5.6.4-8.4.3-3.7.9-7.5 1.3-11.2.8-7.9 2-15.7 4-23.4 1.9-7.4 4.1-14.7 7.7-21.8 2.5-4.9 5.3-9.7 8.1-14.5 4.4-7.5 8.4-15.1 13.6-22.3 3.9-5.5 8.3-10.7 13.4-15.5 3.7-3.6 7.7-7 11.5-10.5 8.6-7.8 18.4-14.7 28.9-21 7.8-4.7 16.2-9 25.1-12.4 9.2-3.6 18.6-7 28-10.1 9.7-3.2 19.6-6.2 29.5-9 10.5-3 21.4-5.1 32.5-6.4 6.8-.8 13.7-1.5 20.6-2 7.2-.5 14.4-.8 21.6-.9 11.4-.1 22.8-.5 34.1.5 3 .2 6 .2 9.1.4 4.9.3 9.9.8 14.8 1.2 4.2.3 8.5.6 12.7 1l10.8 1.3c4 .4 8.1.8 12.2 1.2 2.9.2 5.6.5 8.3.8zm234.1 221.2l.5.1 1-1.6c1.2-3.1 2.4-6.2 3.4-9.3 4.4-13.8 5.6-27.7 3.6-41.8-.8-5.2-1.9-10.5-3.6-15.5-2.1-6.1-4.8-12-7.8-17.9-3.2-6.1-6.7-12.3-11-18-5.4-7.4-10.7-14.9-17.9-21.4-4-3.6-7.8-7.3-11.9-10.8-1.7-1.5-3.6-3-5.8-4.3-9.3-5.4-18.6-10.8-28.2-15.9-6.6-3.5-13.5-6.6-20.3-9.9-1.2-.6-2.5-1.1-3.7-1.6-.1.5 0 .7.2.8 7.3 5.9 14.7 11.7 21.7 17.8 6.4 5.4 12.6 11 18.4 16.8 7.6 7.5 14.8 15.2 21.3 23.3 7.1 8.9 13.4 18.3 19.1 27.8 5.4 9.1 10.5 18.3 14.3 27.9 1.7 4.3 3.4 8.7 4.4 13.1 1.3 5.2 2 10.6 2.6 15.9.5 4.8 1 9.7.4 14.5-.3 3.3-.4 6.6-.7 10zm-535.3-147.5c.3.2.5.4.8.5.3-.4.6-.8 1.1-1.2 3.2-2.7 6.3-5.6 9.8-8.1 6.5-4.9 13.2-9.6 20.6-13.7 4-2.2 8-4.5 12.1-6.7 3.1-1.7 6.3-3.3 9.6-4.9 5.8-2.8 11.6-5.6 17.6-8.1 5-2.2 10.3-4.1 15.4-6.1 3.4-1.3 6.8-2.8 10.3-3.9 7.6-2.3 15.2-4.5 23-6.5 14.6-3.8 29.5-6.9 44.5-9.2 8.4-1.3 16.9-2 25.3-3.1 8.1-1 16.3-1.3 24.5-1.4 13.3-.2 26.5.5 39.7 1.4 10.8.7 21.6 2 32.2 3.5 8.7 1.2 17.5 2.6 26.1 4.3 9.4 1.8 18.7 4 28 6.2 12.6 3 25 6.3 37.1 10.3l2.1.5c-.4-.6-.9-1-1.5-1.2-6.7-2.9-13.4-6-20.3-8.7-6-2.4-12-4.9-18.4-6.5-8.7-2.2-17.6-3.9-26.6-5.3-10.7-1.7-21.6-2.9-32.4-4.2-8-.9-16.1-1.7-24.1-2.3-7.9-.6-15.8-1.1-23.7-1.5-6.1-.3-12.3-.5-18.4-.5-10.7 0-21.4.2-32 .8-10.8.6-21.6 1.7-32.3 3.3-12.2 1.8-23.9 4.9-35.4 8.4-17.2 5.3-34.2 11-50.4 17.9-12.3 5.2-23.3 11.9-33.6 19.2-7.5 5.3-14.2 11.1-20.7 17.2-3.5 3-6.7 6.3-10 9.6zm192.8-89.4c-5.2-1-10.4-1.7-15.7-1.8-6.4-.2-12.8.2-19.2.8-10.5.9-20.7 2.5-30.8 4.8-11.8 2.7-23.3 6-34.5 9.9-14 4.8-27.7 10.1-40.5 16.6-13.4 6.7-26.2 14.1-38.3 22.3-13.2 8.9-25.1 18.6-35.8 29.3-13.1 13.1-24.1 27.1-32.3 42.4-5.1 9.7-8.5 19.7-11 30l-1.1 4.6c1.2-1.5 1.8-3 2.7-4.5 2.6-4.8 5.2-9.6 7.9-14.4 3.9-6.8 7.8-13.7 11.9-20.4 5.4-9 12.2-17.3 19.6-25.4 11-11.9 23.4-22.9 37-33.1 9-6.7 18.6-12.8 28.6-18.5 7.7-4.4 15.6-8.4 23.8-12.1 15.1-6.6 30.8-12.2 47.3-16.6 8.4-2.3 16.9-4.3 25.5-6 12.8-2.6 25.8-4.8 38.9-6.2 5.4-.6 10.7-1.1 16-1.7zm325.8 278.2l.5.2c2.2-2.2 4.5-4.4 6.5-6.7 11.5-13.4 21.4-27.4 27.7-42.9 3.4-8.3 6.1-16.7 7.3-25.4.9-6.2 1.4-12.4 2.1-18.6.5-4.7 0-9.2-2.6-13.6-3.1-5.1-5.4-10.6-8.8-15.6-8.2-12.3-19-23.3-30.7-33.7l-4.2-3.6c.2.9.7 1.7 1.3 2.4 2.2 2.8 4.6 5.6 6.5 8.5 4.1 6.3 8.3 12.6 12 19 5.8 10.1 9.7 20.5 11.9 31.4 1.2 5.8 1.4 11.6 1.7 17.4.3 6.9-.7 13.8-2.2 20.6-.8 3.7-2.1 7.3-3.1 11-2.3 8.3-7 15.9-11.5 23.6-1.5 2.5-3.2 5-4.6 7.6-1.7 3.2-3 6.6-4.6 9.8-1.8 2.9-3.6 5.7-5.2 8.6zm-247.6 107.3v.2c5.1-.2 10.2-.4 15.3-.7 8.8-.7 17.6-1.2 26.2-2.3 15.6-1.8 30.9-4.5 46-8.1 16.2-3.8 31.7-9 46.6-15.3 10.7-4.5 20.7-9.9 30.6-15.4 2.2-1.2 4.3-2.5 6.4-3.8-.6-.1-1 0-1.4.1-7 2.5-14 5.1-21.1 7.5-16 5.4-32.1 10.5-48.7 14.6-13.9 3.4-27.6 7.3-41.5 10.8-10.1 2.5-20.2 4.9-30.4 7.1-9.1 2-18.6 3.5-28 5.3zm296.5-192.2h-.5c-.5 3.9-1.1 7.8-1.6 11.8-.7 4.7-1.9 9.3-3.7 13.8-1.5 3.8-3.1 7.6-4.3 11.4-1.8 5.7-4.4 11.1-7.8 16.3-3.5 5.4-7.2 10.7-10.9 16-5 7-10.8 13.7-17.6 19.8-5.2 4.7-10.8 9.3-16.2 13.9-.9.8-1.8 1.7-2.7 2.6-2.9 3-5.8 6-8.8 9-2.3 2.2-4.7 4.4-7.1 6.6.4 0 .7-.1 1-.2 13.5-7.9 26.2-16.4 37.4-26.3 8.7-7.7 17-15.7 23.6-24.6 2.2-3 4.4-6 6.4-9 3.5-5.4 5.8-11.2 7.9-17 4.3-11.6 6.3-23.4 5.9-35.5-.1-2.8-.7-5.7-1-8.6zm-371.1 192.8v-.4c-5.5-.5-10.9-1.1-16.4-1.4-12.1-.6-24-2-35.9-3.7-10.3-1.4-20.3-3.5-30.3-5.8-8.9-2-17.7-4.1-26.2-7-2.1-.7-4.2-1.4-6.3-2.2-6.4-2.3-12.7-4.6-19.1-6.8-6.2-2.1-11.3-5.6-17.5-7.8-3.8-1.4-7.3-3.4-10.7-5.4-4.3-2.5-9.3-4.5-13-7.7-.2-.2-.6-.3-.9-.4-4.9-2-9.1-4.8-13.1-7.8-.4-.3-.9-.5-1.4-.7 1.7 2 3.6 3.8 5.5 5.6 11.7 10.3 25.3 18.9 39.6 26.8 3 1.6 6 3.3 9.2 4.5 4.6 1.6 9.4 2.9 14.2 4.2 10 2.8 20.2 4.9 30.5 6.9 14.2 2.8 28.6 5 43.2 6.5 12.7 1.4 25.5 2 38.3 2.5 3.6.2 7 .1 10.3.1zm-244-107.5c14.4 29.1 37.5 53 70.8 71-1.2-1.1-2.6-2-3.9-3-4.4-3.6-8.9-7.3-13.2-11-5.7-4.9-10.8-10.2-15.4-15.7-2.4-2.9-4.6-6-7.9-8.4-2.6-1.9-5-3.9-7.3-5.9-1.9-1.7-3.7-3.5-5.5-5.3-5.2-5.1-9.6-10.6-13.8-16.3-1.2-1.8-2.5-3.6-3.8-5.4zm485.3 52.8l.2.3 1.4-.5c9.2-4.3 18-9 26.7-13.9 11.7-6.5 22.6-13.7 33-21.5 1-.8 2-1.6 2.7-2.5 3.7-4.7 7.3-9.5 11-14.3.4-.5.7-1 1.2-1.9-5.9 5.4-11.2 10.7-17 15.6-5.9 4.9-12.1 9.7-18.5 14.2s-13 8.7-19.8 12.8c-6.9 3.9-14 7.7-20.9 11.7zm-57.1-292.9l.9.4c7.1 3.6 14.3 7.2 21.3 10.9 4.3 2.2 8.4 4.6 12.8 6.7 9 4.2 18.2 8.3 27.3 12.4 2.2 1 4.4 1.9 7 3.1-6.4-6.7-54.2-29.9-69.3-33.5zm-187 351.7c-17.2-.3-34.4-1.5-51.5-3.4s-33.8-5-50.5-8.3c.1.2.2.4.3.4 7.8 2.5 15.9 4.5 24.1 5.9 9.6 1.6 19.2 2.8 28.9 4 11.3 1.3 22.7 1.5 34 1.7 4.9 0 9.8-.2 14.7-.3zm238.7-51.4c.1.1.2.2.2.4.5-.1.9-.2 1.4-.4 8.5-3.4 16.9-6.7 25.3-10.1 2.2-.9 4.3-1.9 6.1-3.2 4.2-3 8.2-6.2 12.3-9.4l.9-.9c-15 8.2-30.1 16.4-46.2 23.6zm-206.1 45.8v.3c2.3-.1 4.7-.2 7-.4 0-.2 0-.3-.1-.5-2.2.2-4.6.4-6.9.6z"/><path class="st0" d="M510 122.3c.4.1.7.2 1.1.2-.1.2-.2.6-.3.6l-1-.3c.1-.2.2-.4.2-.5z"/><path class="st2" d="M515.2 239.5c3.2-1.8 6.5-3.4 10.5-3.6 4.2-.2 8.5-.9 12.7-1.2 1.8-.2 3.6-.4 5.4-.1.8.1 1.7 1.1 2.3 1.9.5.7-.2 1.3-.9 1.6-2.9 1.2-5.8 2-8.9 2.2-5.1.2-10.3.6-15.4 1-1.9.1-2.3.6-2.5 2.5-.2 2.4-.2 4.9-.2 7.4-.1 5.9-.1 11.7-.4 17.6-.3 4.6-.6 9.2.1 13.8.2 1.2 0 2.5.1 3.8.2 4.8.4 9.6.7 14.5.4 6.6.8 13.1 1.4 19.7l1.5 15.1c.2 2.5.3 5 .3 7.6.1 6.9.2 13.8.3 20.6 0 .9-.1 1.7-.1 2.9 2.5-.2 4.9-.3 7.2-.7 3.4-.5 6.7-1.4 10-1.9 3.8-.6 7.7-1 11.5-1.4.5-.1 1.3.2 1.4.5.2.5-.1 1.1-.2 1.7-.4 1.2-1.2 1.6-2.5 1.7-4.6.6-9.2.8-13.8 1.1-3.8.3-7.7 1.1-11.5 1.7-.6.1-1.2.3-1.9.4-2.5.4-3.4-.2-3.6-2.7-.3-6.5-.6-12.9-.5-19.4.1-5.8-.2-11.6-.3-17.3-.3-8.5-.6-16.9-1-25.4-.2-4.5-.6-9-.9-13.5-.5-7.3-1-14.5-1.6-21.8-.5-6.5-.7-13-.1-19.4.3-3.8.6-7.3.9-10.9zM531.3 263.9c-1.2-.8-2.3-1.4-3.2-2.2-1.4-1.2-1.1-2.6.7-3.1 1-.3 2-.3 3-.5 1.3-.2 2.6-.4 4.1-.6.5.9 0 1.4-1 1.7l-3.7.9c-.5.1-1 .2-2 .5 2.4 2.5 5.5 2.2 8.3 2.9.1 1.3.3 2.6.3 3.8 0 2.3-1.6 4-3.9 4.3-2.5.2-5.1-1.4-5.4-3.6-.1-.6.3-1.3.7-1.9.6-.8 1.3-1.4 2.1-2.2zm-1 3.3c1.1 2.8 3.2 3.6 5 2.3 1.1-.7 1.3-1.8.8-3.1s-1.5-1.1-2.4-.8c-1.1.3-2.2 1-3.4 1.6zM545.9 256.3c0-.7 0-1.4.1-2 .1-2.2-.4-3.1-2.6-3.5-1.8-.3-3.6-.4-5.4-.4-1.3 0-2.6.3-4.3.5.4.5.6.8.8 1 1.2 1.4 1.3 2.6.4 3.8-.8 1.1-2.9 1.8-4 1-1.5-1-2.8-2.3-3.9-3.7-.8-1.1.1-3 1.4-3.1 4.2-.5 8.4-1.7 12.7-1.1 1.2.2 2.5.4 3.7.8 2.4.8 3 1.7 2.6 4.3-.2 1-.2 2-1.5 2.4zm-17.3-3.9c.8 1.6 1.7 2.7 3.1 3.1 1 .3 1.8-.2 2-1.1.1-.4-.2-1.3-.6-1.5-1.3-.6-2.7-.9-4.5-.5zM529.5 358.2c-.1-1.3.5-1.7 1.5-1.8 2.1-.2 4-.8 5.8-2-1-1.8-3-1.1-4.3-2 0-1.2 1-1.4 1.7-1.8l3.2-1.6c.7-.4 1.3-1.1 2.2-1.9-3.6-1.9-7-1.2-10.5-.8-.6-.7-.6-1.6.4-1.7 3.4-.5 6.9-.8 10.3.4 1.6.6 1.7 2.2.3 3.7-1 1-2.1 1.8-3.2 2.8.1.2.1.4.2.4 2.6 1.5 2.7 3 .1 4.4-1.8 1-4 1.5-6 2.1-.4.2-1.1-.1-1.7-.2zM552.5 318.4c.6-.4 1-.8 1.5-1.2l-.3-.6c-1.7-2.3-1.6-3.1.8-4.8.5-.3 1-.7 1.6-1.2-1-.7-1.8-1.2-2.6-1.9-1.3-1.2-1.2-2.8.5-3.7.7-.4 1.5-.5 2.3-.7 1.3-.3 2.6-.6 3.9-1 .7-.2 1.2.1 1.5 1-1.8 2-4.8.8-6.9 2.5 1.4 2.6 4.3 2 6.8 3.3-.8.5-1.2.9-1.7 1.2-1.3.6-2.7.9-3.9 1.6-1.9 1-1.9 2.2 0 3.3.7.4 1.5.5 2.3.6.6.1 1.2.1 1.9.1-1.1 1.6-4.5 2.2-7.7 1.5zM553.3 287.2c.3.1.6.2.8.2 1.3-.1 2.8 0 3.2-1.4.5-1.4-1-1.9-1.9-2.6-.2-.2-.5-.4-.8-.7.3-.3.6-.6.8-.6 1.6.1 3.7 1.7 3.9 3.3.1.7-.2 1.9-.7 2.3-2.4 1.5-5 2.6-7.9 1.7-1.7-.5-3.2-2.9-3.1-4.6 0-1.1.5-2.1 1.6-2.4 1.2-.3 2 .4 2.5 1.3.6 1 1 2.2 1.6 3.5zm-2.1.6c-.2-1.5-.2-2.6-1.7-3.3 0 1.4.1 2.4 1.7 3.3zM539.1 292.8c.1 1.2-.9 1.7-1.8 2.1-1.2.5-2.6.8-3.8 1.2-.8.3-1.5.7-2.5 1.1 2 3.1 5.3 2.4 8.2 3.3-.6.5-.8.9-1.1.9-4.5.7-9 1.3-13.5 1.9-.1 0-.3-.3-.5-.7 2.4-1.6 5.4-.6 8.1-1.9-.8-.7-1.5-1.2-2.1-1.8-1.1-1.1-1-2.3.3-3.2.8-.5 1.7-.9 2.6-1.2 1.9-.6 3.9-1.1 6.1-1.7zM532.7 338.5c-.5-.6-.9-1-1.2-1.4-1.4-2.1-.7-4 1.7-4.7l3-.7c1-.3 1.9-.8 2.8-1 .6-.2 1.2-.1 2.1-.1-.8 1.9-2.2 2-3.4 2.4l-3.7.9c-.5.2-1.2.6-1.3 1.1-.3.8.3 1.5 1 1.9 1.5.9 3.2.9 4.8.9l2.4.1c.1.3.2.5.4.8l-1.1.4-12.6 1.5c-.2 0-.4-.4-.8-.8 2.1-.4 3.9-.8 5.9-1.3zM539.7 323.3c.2.7.6 1.3.6 1.8-.1 1-.2 2.1-.7 2.9-1.1 1.6-4.8 2.2-7.1 1 .5-.2.9-.5 1.3-.5 1.1-.2 2.2-.3 3.3-.6 1-.3 1.9-.8 1.8-2.1-.1-1.1-1-2-2.2-2.1-.9-.1-1.9-.1-2.8-.1-.4 0-.9-.1-1.4-.2.1-1.3 1-1.3 1.8-1.4 2.6-.2 5.2-.3 7.8-.6.8-.1 1.7-.4 2.5-.6.4-.1.9-.3 1.3-.2.4.1.6.6.9.9-.3.3-.6.8-.9.9l-4.9.8c-.4-.1-.7 0-1.3.1zM534.1 288.5c.6-.2 1-.3 1.4-.6.9-.7.8-1.3 0-2.1l-1.4-1.4c1.5-1 2.2 0 3 .6.8.6 1.2 1.5.7 2.5-.4.7-.9 1.3-1.5 1.8-1.1.9-2.3 1.7-3.5 2.4-.8-.7-1.8-1.4-2.8-2.2-.7-.6-1.4-1.1-1.9-1.8-.3-.5-.5-1.5-.3-1.9.3-.6 1.2-1 1.9-1.1 1.3-.2 2.5.5 3.1 1.7.6.6.9 1.3 1.3 2.1zm-2.8-.1l.5-.4c-.3-.7-.5-1.6-2-1.2.5.5 1 1 1.5 1.6zM540.1 308.2c-.4 1.7-1.9.8-2.7 1.2-1 .4-2.1.5-3.2.8.1.9.1 1.6.1 2.4-1.7.6-1.6-1-2.4-1.7-2.1-.2-4.2 1.6-6.5.7-.2-.9.2-1.2.9-1.4 1.5-.3 3.1-.6 4.7-.9.1-2 .1-3.9.2-6 1.4.6 1.5 1.7 1.4 2.6-.3 3.1.8 3 3.5 2.5 1.3-.2 2.5-.9 4-.2zM557.9 326.5c.7-.1 1.3-.1 1.9-.3.9-.3 1.3-1.1 1.2-2.1-.1-1-1-1.2-1.8-1.2-1.5 0-3 1.3-3.2 3-.1 1.2-.1 2.5-.1 3.7-1.4.6-1.7-.4-2.1-1.1-2.1-3-2.1-3.1-1.6-4.9 1.4.4.9 2.1 2 2.7.3-.8.5-1.6.9-2.3 1-1.8 3.9-2.7 5.9-2 .4.1.7.4 1 .6 1 1 .8 2.6-.4 3.8-1.3 1.3-2.3 1.3-3.7.1zM550 274.4l-3.6-1c-.8-.2-1.5-.5-2.3-.5-2-.1-2.8.8-2.4 2.8l.9 3.2c.1.3-.1.9-.3 1-.2.1-.8 0-1-.2-1.2-1.1-2.1-5.4-1.1-6.7.6-.8 1.6-1.6 2.6-1.8 2.6-.5 5 .4 7.1 1.8.3.2.3.7.5 1.1-.1 0-.3.1-.4.3zM558.9 294.2c-1.7 1.4-3.6 1.2-5.4 1.3-1.4.1-2.8 0-4.3 0-1.8.1-3.6.1-5.3 1.1-.6.4-1.3.6-1.9-.3.4-1.3 1.5-1.8 2.6-1.9 2.3-.3 4.5-.5 6.8-.6 1.9-.1 3.9.2 5.8-.8.8-.4 1.3.1 1.7 1.2zM525 275.8c.6-.2 1.2-.7 1.8-.7 3.4-.2 6.7-.9 9.9-2.1.8 1.2.2 1.7-.8 1.9-2.4.6-4.7 1.2-7.1 1.7-.8.2-1.6.2-2.4.2-.5 0-.9-.3-1.4-.4v-.6zM554.3 273.1h1.2c1.4.2 2.1 1 1.9 1.9-.2 1.1-1.5 1.8-2.8 1.4-.4-.1-.8-.3-1-.6-.3-.7-.7-1.5-.6-2.1.2-.3 1.1-.5 1.3-.6zM554.8 302.3c.2-.8.3-1.3.5-1.4 1.3-.3 2.5-.6 3.8-.8.2 0 .7.4.8.7.1.3-.3.9-.5.9-1.4.2-2.9.3-4.6.6zM545.7 300.8c.5-.3.8-.7 1.2-.7.3 0 .5.4.8.6-.4.3-.7.7-1.1.9-.1 0-.5-.4-.9-.8z"/></svg>