<?xml version="1.0" encoding="utf-8"?>
<!-- Generator: Adobe Illustrator 18.1.0, SVG Export Plug-In . SVG Version: 6.00 Build 0)  -->
<!DOCTYPE svg PUBLIC "-//W3C//DTD SVG 1.1//EN" "http://www.w3.org/Graphics/SVG/1.1/DTD/svg11.dtd">
<svg version="1.1" id="Layer_1" xmlns="http://www.w3.org/2000/svg" xmlns:xlink="http://www.w3.org/1999/xlink" x="0px" y="0px"
	 viewBox="-373.1 -1122.2 1714.8 997" enable-background="new -373.1 -1122.2 1714.8 997" xml:space="preserve">
<g>
	<path d="M64.1-525c-23.4-9.9-10.9-53-11.1-74.5c-0.3-31.2-5.5-61.6-6.4-92.6c-1-35.5-0.2-142.4-55.2-138
		c-27.6,2.2-55.6,12.7-81.1,23.1c-14.8,6-23.4,7-22.3,23c1.1,15,9.3,32.4,13.1,46.9C-96.1-727-84.2-702-87.1-692
		c-4.9,16.9-19.7,6.1-25-2.6c-14.7-24.1-13.7-57.8-23.6-84.1c-19.8,8.3-32.8,21.2-48.3,35.2c-10.5,9.5-37.2,10.5-29.6-10.9
		c2.8-7.9,19.9-15.9,26-20.3c10.6-7.7,21.2-15.3,31.6-23.2c9.3-6.9,11.9-7.3,12.9-18.5c0.9-10.3-5.1-23.3-7.9-33
		c-5.6-19.6-10.2-39.4-17.1-58.6c-4-11.2-26-64,3-43.4c15.1,10.7,17.3,36.3,21.9,52.2c7.6,26.1,15.3,52,21.9,78.3
		c29.4-16,56.9-41.5,82.2-63.5c25-21.8,50.1-43.7,69.7-70.7c15.6-21.5,36.4-60.3,25-86.6c-13.9-32-45.8-35.5-76.4-30.8
		c-62.8,9.7-116.7,52.1-171.2,81.5c-31.3,16.8-60.9,37.1-90.1,57.3c-10.9,7.6-19,17.6-28.5,26.8c-7.7,7.5-20.2,25.8-33.7,24.6
		c-36.2-3.2,18-41.6,25.2-47.9c22-19.4,42.7-40.9,66.2-58.5c52.3-39.1,114-71.9,176.1-92.3c45-14.8,159.3-39.5,165.3,35.6
		c5.3,66.2-49,123.9-94.1,164.9c-7,6.4-28.5,18.4-17.7,24.2c4.8,2.6,17.3-1.8,23-1c7.1,1,13.3,4.1,19.4,8
		c30.2,19.5,37.3,53.1,41.9,86.4c5.8,41.7,10.4,83.4,12.6,125.4C74.5-616.3,85.3-535.2,64.1-525C61.9-526,70.3-528,64.1-525z"/>
	<path d="M702.5-182.7c-24.3,22.8-56.4,48.5-92,35.7c-29.5-10.6-48.3-41.9-50-72.1c-2.2-37.6,15.4-66.7,37.2-95.9
		c11.5-15.4,24.9-29.1,37-44.1c13.7-17,16.4-18.2,4.6-37.3c-26.4,20.9-53.3,27.5-84.4,12.4c-28.5-13.8-42-47.1-28-77.6
		c13.8-30,49.5-46.6,79.9-29.5c33.4,18.9,39.2,62.2,58.6,92.6c4.5-2.7,10.2-8.8,12.5-13.7c4.1-8.8,1.4-10.9-0.1-20.4
		c-2.7-16.8-2.2-38.3,1.2-54.9c5.1-24.9,28.7-60.7,58.7-56c40.8,6.4,14.2,63.7,3.4,83.5c-4.5,8.2-9.5,15.8-14.5,23.7
		c-6,9.6-10.2,10.5-2.5,18.1c13.5,13.2,37.6,1.4,51.1-3.7c12.6-4.8,27-10.8,26.2,8.1c-0.8,18.6-17.8,22.1-31.3,28.2
		c-17.7,8-30.4,16-49.6,8.7c-14.3-5.4-29.4-25.6-40.1-5.7c-10.8,20.1,25,71.7,32.7,93.3C725.9-252.7,717.5-216.9,702.5-182.7
		C696.9-177.4,703.6-185.2,702.5-182.7z M657.5-354.6c-26.8,29-58.7,66.2-70.6,104.4c-9.2,29.4-4.6,73.3,30.8,82.6
		c38.6,10.2,62.9-27.7,69-60.1C695.2-271.8,677.8-316.2,657.5-354.6C654.3-351.1,660-349.8,657.5-354.6z M546.5-430.3
		c9.8,17,36.6,24.5,55,21.1c31.3-5.8,19.3-25.3,3.7-44.2C585.4-477.3,524-469.3,546.5-430.3z M704.7-441.4
		c10.2-7.4,48.8-73.2,27.3-79.6c-11.5-3.4-27.5,19.4-30.6,28.5C696.3-477.5,698.1-455.6,704.7-441.4
		C706.4-442.6,702-447.3,704.7-441.4z"/>
	<path d="M49.5-430.6c5.7-28.1,33.2-58.1,52-78.8c21.1-23.3,44.1-44.5,68.3-64.6c40.5-33.8,94.6-76.8,151.9-63.2
		c61.4,14.5,84.6,77.8,77.7,134c-7,56.7-38.8,113.1-74.2,156.5c-37.3,45.6-79.2,93.1-130.8,122.9c-6.5,3.7-19.5,15.1-27.6,10.3
		c-10.8-6.3-2.6-17.7,4.5-23.2c8.6-6.7,20.1-10.4,29.2-17.2c13.9-10.4,25.9-21.1,38.1-33.7c42-43.7,87.1-96,113.1-151.4
		c24.6-52.4,31.1-106.4-11.4-152c-51.3-55-119.3,0.1-161.7,38.5c-25.3,22.9-50,46-72.4,71.7c-11.1,12.7-22.9,26-31.2,40.8
		C68.3-428.5,63.1-413.2,49.5-430.6C49.9-433,50.8-428.9,49.5-430.6z"/>
	<path d="M211-1002.4c0,13.7,5.5,25.5,7.2,39.6c2.3,18.6,5,35.9,10.2,54c3.3,11.8,6.1,42.8,14.7,51.6c10.2,10.5,26.7-8.8,42.5-9.5
		c75.7-3.2,102.8,92.8,51.2,139.3c-23.7,21.4-59.4,29.4-76.3-2.2c-15.2-28.4-20.1-65.8-29.2-96.9c-10-34.7-20.9-69.2-30.1-104.1
		c-4.6-17.2-11.4-37.6-13-55.4C186.7-1000.1,195.3-1016.4,211-1002.4C211-997.8,209.2-1004,211-1002.4z M280.1-753.2
		c12.9,27.7,30.5,15.5,45.8-3.8c39.5-49.5-8-104.4-64.7-76.4C258.4-829,273.3-767.9,280.1-753.2z"/>
	<path d="M1176.1-457.3c16.4-5.5,25,14.6,38.7,20.6c17.8,7.8,40.1,6.4,58-0.6c19.8-7.7,27.2-27.1,18.4-46.4
		c-9-19.7-26.1-22.9-45.6-27c-17.3-3.6-48.6-6.3-56.4-26.2c-6.6-16.9,8.2-38.2,21-47.3c14.9-10.6,37.4-16.3,55.3-11.2
		c15.2,4.3,32.5,26.6,7.7,27.5c-7.5,0.3-16.1-8.2-24.9-8.5c-7.6-0.2-15.2,1.8-21.8,5.6c-16.7,9.6-22,24.9-3,31.6
		c19.2,6.7,41,5.4,60.8,13.4c16.8,6.8,30.8,20.1,36.3,38c12.3,40-4,75.3-45.5,81.8c-25.5,4-45.5,1.5-68.5-10.5
		C1193.6-423.4,1162.7-437.5,1176.1-457.3C1184.8-460.2,1172.7-452.3,1176.1-457.3z"/>
	<path d="M218.9-722.6c36.2,5.7-12.7,49.1-29.3,55.7c-26.9,10.6-53.4,6.5-69.5-19.5c-32.9-53-21-126.2,32.8-162.1
		c23.9-16,60.6-5.6,60,27.7c-0.6,29.5-35.5,56.3-60.1,67.2c-14.5,6.4-32.9,2.3-27.3,22.6c3.9,14.1,13,21.6,25.7,27.4
		C180.4-690.1,201.6-697.6,218.9-722.6C222.9-722,216.3-718.8,218.9-722.6z M153.1-774c15-6.4,25.5-20.4,31.5-35.1
		c9.5-23.4,1.5-31.6-20.1-24.2C151.7-828.9,100.5-751.8,153.1-774z"/>
	<path d="M892.9-848.4c6.7,15.2,37.3,36.1,25.6,50.4c-6.3,7.7-19.1,8.1-26.1,2.2c-11.4-9.6-2-17.9-18.5-13
		c-22.8,6.8-37.2,19-63.4,13.2c-51.1-11.2-44.7-71.4-26.6-108.9c10.1-20.9,22.1-36.4,46.4-37.9c24.3-1.5,38.4,6.3,42.1,28.2
		C873.5-907.5,885.6-865,892.9-848.4z M844.8-901.9c-3.5-11.4-3.5-20.9-17.7-17.7c-10.3,2.4-21.8,16.6-26.9,25.1
		c-9.4,15.8-17.5,46.2-3.6,61.5c16.3,17.9,53.8,7.9,71.9-1C871.9-839,848.2-891.1,844.8-901.9z"/>
	<path d="M1089.4-445.9c3,32.7-25.2,4.8-36.1,5.9c-20.7,2-29.6,29.6-53.6,23.1c-47-12.8-55.6-64.4-40.3-103.2
		c11.4-28.9,49-67.2,80.8-35.2c12.6,12.6,12.8,40.9,17,57.5C1063.4-473.1,1070-461.7,1089.4-445.9
		C1090.5-434.6,1086.9-448,1089.4-445.9z M1001.6-454.9c15.9,5.5,39.7,3.8,39.5-15.8c-0.1-10.2-10.4-25-13.9-34.6
		c-3.7-10.3,1.6-26-8.2-30.9C991.3-550,956.4-470.5,1001.6-454.9z"/>
	<path d="M505.3-405.6c3.2,10.1,5.8,18.4,15,24.6c3.4,2.3,12.3-2.4,13.2,7.4c0.8,9.2-16.4,23.9-23.5,19.4
		c-4.9-3.1-8.2-8.3-11.2-13.3c-4.4-7.3-5.3-6.4-12.3-1.2c-15,11.1-28.4,23.7-49.2,23.6c-45.6-0.1-61.6-51.9-43.3-86.7
		c20.1-38.2,57.7-59.5,95.9-37.7C493.7-467.3,498.8-426.3,505.3-405.6z M458.6-452.2c-18.2-6.2-41.7,13.3-46.1,29.3
		c-12.4,44.6,59.8,64.3,71.1,20.7C482.1-406.4,472.9-447.3,458.6-452.2z"/>
	<path d="M483.4-767.9c21.7,8.5-3,32-15,37.9c-28.4,14.1-55.7,7.4-74-17.4c-31.1-42.2-20.9-102,18.1-137.2
		c18.8-17,49.5-18.2,58.9,9.1c9.6,27.7-9.9,52.4-31.9,66.6c-7.4,4.8-35.3,11.6-39.9,17.7c-6.8,9.1,6.9,22.9,15,28
		C440.8-746.5,458.7-761.4,483.4-767.9C493.9-763.8,482.4-767.6,483.4-767.9z M448.2-871.5c-18.3-29.2-49.7,47.2-51.4,60.8
		C405.4-809.4,465-844.8,448.2-871.5z"/>
	<path d="M853.4-402.1c-25.3,26.9-39-35.9-44.2-54.5c-3.1-11-7.5-23.6-9.7-34.8c-3.8-19.9,4-11.1,14-21.6c9.1-9.6,11.5-22,23.2-31.1
		c11.9-9.2,29.1-17.4,44.7-14.3c31.3,6.1,46.1,45.6,51,72.3c3.2,17.3,5.6,36,5.5,53.5c-0.1,12.9-8.9,37.8-21.6,17.7
		c-7.4-11.8-2.8-40.1-4.4-53.9c-1.7-14.8-3.7-28.9-10.8-42.3c-7.7-14.3-17.8-27.9-36-24.5c-14.2,2.7-25.5,13.5-29.8,26.9
		C824.3-473.9,846.9-435.6,853.4-402.1C850.3-398.9,852.6-406.3,853.4-402.1z"/>
	<path d="M599-892.7c-14.1,13.5-18.4-5.7-31.1-7.6c-13.8-2-23.8,11.5-30,21.8c-13.9,23.1-18.4,60.2,1.9,80.8
		c17.1,17.3,47.1,20.3,68.5,9.6c9.4-4.7,27.4-21.2,30.5,0.5c1.5,10.9-14.6,22.1-22.4,26.9c-54.1,32.9-112.6-20.6-109.9-78.7
		c1.3-28.5,13.9-62.9,41.2-75.3C564.1-922.2,604.8-920.8,599-892.7C595.3-889.2,600.2-898.8,599-892.7z"/>
	<path d="M751.7-817.8c32.1-3.4-4.8,32.3-15,38c-27.2,15.5-54.7,16.6-77.2-8.2c-33.6-36.9-16.4-132.6,38.4-142.1
		c7-1.2,27.5-0.4,33.1,4.6c11.6,10,0.1,21.6-10.6,22c-10.3,0.4-15.8-8.3-28.5-2.3c-11.9,5.5-20.5,20.9-24.8,32.7
		c-8.3,22.8-10.7,57.8,12.8,72.4C704.4-785.6,735-798.3,751.7-817.8C758.4-818.5,750.6-816.5,751.7-817.8z"/>
	<path d="M168.6-427.1c-6.8-22.9-16.8-47.4-19.8-71.1c-2.9-22.6,11.9-29,21.9-7.3c9.2,20,11.1,43.8,19.7,64.4
		c7.9,19,31.1,75.7,34.2,85.3c2.3,7.2,7.3,17.8,8.1,24.5c2.1,17.5-14.7,18.4-29.3,19.9C201.7-314.8,179.6-389.9,168.6-427.1z"/>
	<path d="M1089-548.3c23.9-27.7,29.7,3.3,35.7,26c3.5,13.3,7,26.2,13,38.6c5.2,10.8,16,23.6,13.5,36.6c-2.6,13.4-12,16-21.9,8
		c-8.3-6.7-10.7-25.4-14.4-35.2C1105.5-499.7,1095.1-521.5,1089-548.3C1091.9-551.7,1089.6-545.8,1089-548.3z"/>
	<path d="M1123.9-632.4c2,10.8-13.2,29.2-24.1,31.4c-31.9,6.3-33.6-37.6-16-48.8C1089.1-653.1,1121.2-647.6,1123.9-632.4z"/>
</g>
</svg>
