<?xml version="1.0" encoding="utf-8"?>
<!-- Generator: Adobe Illustrator 19.1.0, SVG Export Plug-In . SVG Version: 6.00 Build 0)  -->
<!DOCTYPE svg PUBLIC "-//W3C//DTD SVG 1.1//EN" "http://www.w3.org/Graphics/SVG/1.1/DTD/svg11.dtd">
<svg version="1.1" id="Layer_1" xmlns="http://www.w3.org/2000/svg" xmlns:xlink="http://www.w3.org/1999/xlink" x="0px" y="0px"
	 viewBox="0 0 960 502.6" enable-background="new 0 0 960 502.6" xml:space="preserve">
<g>
	<g>
		<path fill="#231F20" stroke="#231F20" stroke-miterlimit="10" d="M94.9,479.8H70.2v-71.1h24.7c22.3,0,37.8,15.3,37.8,35.4
			C132.7,464.3,117.2,479.8,94.9,479.8z M94.9,416.2H78.3v56.2h16.6c18,0,29.4-12.2,29.4-28C124.3,428.6,112.9,416.2,94.9,416.2z"/>
		<path fill="#231F20" stroke="#231F20" stroke-miterlimit="10" d="M253.3,479.8h-8.6l-8.3-18.8h-38.7l-8.4,18.8H181l32.4-71.6h7.5
			L253.3,479.8z M217,417.6l-16.2,36.2h32.4L217,417.6z"/>
		<path fill="#231F20" stroke="#231F20" stroke-miterlimit="10" d="M338.3,481c-22.3,0-36.1-16.2-36.1-36.6
			c0-19.6,14.3-36.9,35.6-36.9c12,0,19.4,3.5,26.5,9.4l-5.2,6.1c-5.5-4.8-11.6-8.1-21.6-8.1c-15.7,0-27,13.3-27,29.2
			c0,17.1,10.9,29.6,28.1,29.6c8.1,0,15.6-3.1,20.5-7.1v-17.7h-21.6v-7.2h29.3v28.3C360.2,476.1,350.2,481,338.3,481z"/>
		<path fill="#231F20" stroke="#231F20" stroke-miterlimit="10" d="M478.9,416.1h-43.3v24.3h38.8v7.3h-38.8v24.9h43.9v7.3h-51.9
			v-71.1h51.4V416.1z"/>
		<path fill="#231F20" stroke="#231F20" stroke-miterlimit="10" d="M590.9,408.8h7.8v71.1h-6.4l-45.9-58.3v58.3h-7.8v-71.1h7.5
			l44.8,57V408.8z"/>
		<path fill="#231F20" stroke="#231F20" stroke-miterlimit="10" d="M727.2,479.8h-8.6l-8.3-18.8h-38.7l-8.4,18.8h-8.2l32.4-71.6h7.5
			L727.2,479.8z M690.9,417.6l-16.2,36.2h32.4L690.9,417.6z"/>
		<path fill="#231F20" stroke="#231F20" stroke-miterlimit="10" d="M793.1,408.8v71.1h-8v-71.1H793.1z"/>
		<path fill="#231F20" stroke="#231F20" stroke-miterlimit="10" d="M882.5,440.4c15.8,3.5,23.1,9.2,23.1,20.2
			c0,12.3-10.2,20.2-24.3,20.2c-11.3,0-20.5-3.8-29-11.4l5-5.9c7.4,6.7,14.5,10,24.4,10c9.5,0,15.8-5,15.8-12.2
			c0-6.7-3.6-10.5-18.5-13.6c-16.3-3.6-23.9-8.8-23.9-20.6c0-11.4,9.9-19.5,23.4-19.5c10.4,0,17.8,2.9,25,8.7l-4.7,6.2
			c-6.6-5.4-13.2-7.7-20.5-7.7c-9.2,0-15.1,5.1-15.1,11.6C863.2,433.3,866.9,437.1,882.5,440.4z"/>
	</g>
	<g>
		<g>
			<path fill="#231F20" d="M943.5,350.3c-4-4.9-12-21-13.8-27.8l-0.5-1.9c-2.3-8.3-5.1-18.6-6.1-35.3c-0.2-3,0.7-30,1-38.9
				c0.1-2.6,0.2-4.3,0.2-4.7c0-0.4,0-1.2,0-2.2c0-1.9,0-5.6,0.1-6.7c0.3-4.3-1.9-8.8-5.9-11.6c-3.7-2.6-8.1-3.2-11.8-1.5
				c-6,2.7-8.5,6.9-7.5,12.5c0.6,3.6,2.2,39.2-2.2,50.2l-0.2,0.7c-2.4,10.7-11.2,29-20.1,34.7l-1.2,0.9
				c-11.4,8.5-28.8,17.9-47.9,2.4c-2.1-2.8-14.9-20.8-16-38.9c0.7-18.2,3.8-33.1,8.9-44c14.2-30.2,41.7-36.5,47-37.5
				c13.9-2.5,24.7,3.8,32.5,8.4c5.8,3.4,10.3,6.1,14.8,4.3c2.6-1,4.4-3.3,5.4-6.8c1.5-5.3-0.6-11.1-5.9-16.4
				c-11.5-11.3-36.5-18.7-62.2-10.8l-0.8,0.3c-0.8,0.4-1.8,0.9-3.1,1.5c-9.1,4.2-30.5,14.2-40.3,33.8c-5.5,10.9-19.4,46.2-19.9,64.8
				c-0.3,11.2-0.2,13.7-0.1,15.1c0,1,0,1-0.4,6.9c-0.6,7.8-5.3,19.2-13.1,25.7c-4.5,3.7-9.4,5.4-14.5,4.8
				c-30.3-3.2-42.3-11-51.5-33.3c-3.7-8.9-2.6-35.4,0.1-48c1.6-7.5,11.7-29.5,24.2-38.4c11.8-8.4,28.7-10.9,39.5-10.5
				c0.6,0,1.7,0.2,2.2,0.8c0.5,0.6,0.5,1.8,0.4,2.4c-0.1,0.7-0.2,1.4-0.4,2.1c-0.3,1.4-0.6,2.9-0.7,4.6c0,2.1,0.8,6.2,3.9,8.5
				c2.1,1.5,4.8,1.9,7.2,1.1c7.2-1.8,9-7.9,10.2-12c1.8-5.9,1.6-15.9-4.7-24.4c-4.3-5.8-12.8-12.6-29.4-12.7l-0.4,0
				c-16-0.5-32,6-44.9,18.4c-3.3,3.2-20.1,20.8-28.8,55.7c-1.9,7.7-2.4,16.4-2.7,23.4c-0.2,3.3-0.3,6.4-0.6,8.8
				c-0.6,5.6-3.9,24.8-8.3,33.5c-3.4,6.8-10.8,15.9-20.6,19c-17.1,5.4-42.3-3.8-52-12.6c-10.5-9.4-11.2-24.9-11.8-37.4l-0.2-3.8
				c-0.7-13.8,8-33,12.8-40.2c28.9-43.3,51.1-32.1,55.3-29.4c3.6,2.4,4.2,5.4,4.2,7c0,0.7-0.1,1.1-0.1,1.1
				c-2.3,4.7-4.5,10.6-1.4,14.8c3.2,4.3,10.2,2.4,13.2,0.8c5.6-3.1,9.1-13,8.7-20.3c-0.4-8.5-1.1-15.6-6.5-23
				c-5.3-7.2-16.2-12.6-28.4-14.1c-15-1.8-29.6,2.6-41,12.3c-21.4,18-24.6,29.4-30.5,49.9l-0.5,1.7c-2.3,7.9-4.1,19.9-5.8,31.4
				c-1.1,7.2-2.1,14-3.1,19.5c-1,5.4-4,16.1-5.7,19.4c-3.4,6.7-17.2,28.2-50.7,23.1c-10.2-1.6-17.6-5.5-22.1-11.6
				c-3.2-4.4-3.9-8.7-4-10.7c3.7-2.7,7.9-5.2,11.9-7.7c2.9-1.8,5.8-3.5,8.5-5.3c5.9-3.9,57.2-39.1,57.9-83.5
				c0.1-7.5-1.1-21.5-10.8-30.9c-6.5-6.3-15.5-9.1-26.6-8.6c-22.2,1.1-51,17.4-62.4,88.6l-0.4,2.3c-0.5,3-1.2,11.2-1.8,19.2
				c-0.3,4.4-0.8,9.7-1,12.6c-3.7,1.3-11.3,3.8-17.5,5.3c3.1-9.5,7.1-24.1,8.8-34.8l0.3-2.1c2.3-13.4,8.2-48.9-13.4-73.9
				c-13.6-15.6-47.6-30.1-85.9-6l-0.4,0.3c-11.7,9.3-20.7,21.4-28.4,38.3c0-34.9,0.2-100.6,0.2-108.9c0.1-8.9,0.1-17.7,0.1-26.6
				c0-7,0-14.1,0.1-21.1c0-4,0.1-7.9,0.1-11.9c0.1-5.5,0.1-11,0.1-16.6c0-2.3-0.4-4.8-1.1-7.7c-0.9-3.3-3.9-6.1-7.5-7.1
				c-3.3-0.9-6.5-0.1-8.8,2.2c-3.4,3.4-5.7,8.8-5.9,13.7c-0.3,6.3-0.1,12.6,0.1,18.8c0.1,3.7,0.2,7.5,0.2,11.2
				c0,7.4-1.9,140.6-2.1,152.4c-0.1,7.2-2.2,35.6-3.5,42.3l-0.4,2.2c-5.1,29.8-8.2,47.8-19.8,59.7c-8.2,8.5-16.1,12.3-23.3,11.2
				c-9.1-1.3-15.7-10-18.6-14.5c6.9-8.3,23.8-30.4,31.5-44.7c14.4-26.5,19.1-51.1,19.6-56.3c1.8-19.2-3.2-30.7-17.7-41
				c-7.2-5.1-30.6-11.4-52.9,3.3c-9.1,6-30.5,24.4-33.6,65.7c-2.1,27.4,3.5,53.3,16.5,77c-3.4,2.6-9.7,6.5-15.3,3.6
				c-8.1-4.1-13.1-11.4-18.1-39.8c-2.8-16-3.6-32.3-2.4-48.4c0.6-8.3,2.3-16.9,4-25.1c0.7-3.5,1.4-7,2.1-10.5
				c0.4-2.4,0.9-4.8,1.4-7.2c0.7-3.3,1.4-6.8,2-10.2c0.5-3.5-0.2-6.8-2-9c-1.6-1.9-3.9-3.1-6.6-3.1h0c-3.7,0-7.4,3-9.2,5.6
				c-2.5,3.6-3.8,6.8-5.3,10.2c-1.1,2.5-2.2,5.2-3.9,8.2c-5.7,10.3-18.2,23.8-26.7,32.2c0.8-8.6,0.5-16.1,0.1-23.2
				c-0.5-8.3-5.2-25.7-19.4-32.9c-8.9-5.5-18.7-5-28.2,1.5c-14,9-21.8,26.5-21.4,47.7c-0.4,10.7,6.7,28.2,18.8,37.8
				c6.3,5,14.2,6.6,19.4,7.2C78,302.9,35,352.2,30.4,356.8c-2,1.9-4,3.7-6.2,5.6c-1.9,1.7-3.9,3.3-5.7,5.1c-2,1.9-3,5.1-2.5,7.7
				c0.6,3.2,4.2,5.3,6.6,5.5c1.1,0.1,2.2,0.2,3.2,0.2c4,0,7.3-1,11.5-3.4c3.2-1.8,7-5,9.5-7.3c10-9.3,43.9-43.8,62.5-95.8
				c1.9-4.7,4.4-10.2,5.5-12.5c9.6-6.8,17.5-13.3,24.3-20.4c-0.1,0.5-0.1,1.1-0.2,1.6l-0.9,8.4c-1.8,16.3-1.5,49.6-0.6,60.8
				c1.9,24.9,11.5,43.2,26.2,50.3c11.3,5.5,24.7,3.6,37.7-5.1c4-2.7,7.4-6.7,10.7-10.5c0.6-0.7,1.2-1.4,1.8-2.1
				c7.5,6.3,25.8,20.3,42.2,20.6c19.7,0.5,32.1-8.3,39.7-28.2l2.7-7.1c0,2.1,0,4,0.1,5.5c0.2,7.4,1,15,1.8,21.8
				c0.5,4.2,5.2,9.4,9.9,9.4h0.1c5.8,0,9.8-3.2,10.5-8.3c0.1-0.8,0.4-4.4,1.2-17.5c0.7-11.1,1.6-24.9,1.9-28.1
				c0.5-5.3,2.9-22.1,3.8-28.2c0.4-2.9,3.3-12.9,5.4-20.1c0.9-3.3,1.8-6.2,2.4-8.4c8.7-32,33.4-43.6,33.6-43.7
				c23.4-9.8,49-4.2,55.4,7.1c10.7,18.8,10.1,35.5,6,54.9c-2,9.5-5.5,21.7-8.9,28.6c-3,0-8.7-0.4-16.4-1.7
				c-3.9-0.7-7.6-1.4-11.2-2.1c-13-2.5-24.3-4.6-33.8-3.7c-24.9,2.5-33.4,23.8-34.5,36c-0.7,8,1.6,15.3,6.6,21.2
				c7.4,8.8,19.1,12.6,27.5,13.2c20.5,1.6,44.5-9.7,54.9-18.1c4.2-3.4,14.6-17.1,18.6-22.4c9.1-1.4,21.6-4.7,28.3-6.5
				c1.9,10.2,7.2,32.8,24.2,39.9c35.6,14.7,57.2-0.4,67.5-7.6c1.1-0.8,2-1.4,2.9-2c5.9-3.8,16-15,22-21.9
				c3.9,7.6,11.2,19.7,21.9,26.5c6.3,4,28.4,16.8,49.1,12.6c23.1-4.6,36.3-22.2,37.7-24.2c1.4-1.9,3.3-5,5-7.8
				c11.8,16.7,23.7,24,32,27.2c34.7,13.3,58.7,3.8,72.7-6.6c2.4-1.8,4.6-4.9,6.9-8.2c0.8-1.2,1.8-2.5,2.7-3.7
				c1.3,1.3,2.6,2.6,3.9,3.8c11.3,11.2,21,20.9,41.4,19.6c30-1.9,45.8-25.9,53.4-43.5c1.1,6.3,2.5,12.7,3.9,16.3
				c3.4,8.8,11.7,24.7,21.2,28c3.1,1.1,6.1,0.8,8.8-0.7c2.8-1.6,6.1-5.4,6.8-9.4c0.1-0.6,0.2-1.1,0.2-1.7
				C945.3,353.5,944.7,351.7,943.5,350.3z M93.3,246.9c-5.9-3.3-18.2-16.6-19.9-23.2c-3.7-14.5,4.8-19.7,10.2-21.5
				c0.4-0.1,0.9-0.2,1.5-0.2c0.9,0,2.1,0.3,3.6,1.4c5.2,3.8,8.9,13.3,8.9,17.9C97.5,231.2,94.9,241.6,93.3,246.9z M219.5,314.3
				C219.6,314.4,219.6,314.4,219.5,314.3C219.5,314.4,219.5,314.4,219.5,314.3z M220,307.8c-3.8-5-10.6-16-15.3-34.7
				c-3.1-12.2-4.6-47.7,25.2-65.4c3.5-2.1,7-3.1,10.4-3.1c2.4,0,4.7,0.5,6.8,1.6c5.8,2.8,9,8.3,9.4,11.4c3.1,21.7-3.2,36.9-5.5,42.7
				c-0.3,0.8-0.6,1.5-0.8,2C241,287.8,226.6,301.9,220,307.8z M388.7,335.4c-7.2,2.8-15.1,4.2-23.6,4.3c-5.3,0.1-16.5,0.2-19.9-3.6
				c-0.6-0.6-1.3-1.7-1-4.2c0.5-4.1,10.6-12.6,19.6-13.6c4.6-0.5,8.4-0.7,11.6-0.7c6.7,0,11,1,16.4,2.1c2.3,0.5,4.6,1,7.4,1.5
				c2,0.4,5.8,1.2,9.3,2C402.6,328.6,396,332.6,388.7,335.4z M485.3,269.1c0.4-4.8,1-9.5,1.9-12.6c4-14.5,14.9-32.1,17.6-36
				c5.3-7.7,15.7-16.3,23.8-16.3c1.7,0,3.3,0.4,4.7,1.2c4.6,2.6,7.3,6.6,8.1,11.8c1.4,9.8-4.2,21.6-10.5,28.2
				c-8.5,9-25,23.2-31.3,27.7c-2.1,1.5-9.4,6.3-15.1,10C484.7,279,484.9,273.9,485.3,269.1z"/>
			<path fill="#231F20" d="M219.5,314.3C219.5,314.4,219.5,314.4,219.5,314.3C219.6,314.4,219.6,314.4,219.5,314.3z"/>
		</g>
	</g>
</g>
</svg>
